<?xml version="1.0" encoding="UTF-8"?>
<!-- Generator: Adobe Illustrator 27.1.0, SVG Export Plug-In . SVG Version: 6.00 Build 0)  -->
<svg version="1.1" id="Layer_1" focusable="false" xmlns="http://www.w3.org/2000/svg" xmlns:xlink="http://www.w3.org/1999/xlink" x="0px" y="0px" viewBox="0 0 160 86.3931" style="enable-background:new 0 0 160 86.3931;" xml:space="preserve">
<path d="M14.5694,62.8991h6.2745l14.053,23.2069h-6.6612L17.7496,68.4l-5.5868,9.3687h9.0249l2.7075,4.3835H9.7561L7.2206,86.063  H0.5593L14.5694,62.8991z M125.1031,86.149h6.6612l2.5356-3.9108h14.139l-2.7075-4.3835h-9.0249l5.5868-9.3687l10.4861,17.706  h6.6613l-14.0531-23.207h-6.2745L125.1031,86.149z M34.5102,74.5455v3.0943c0.1289,6.1026,3.567,8.6811,8.896,8.5522h17.5341  v-4.7703H43.4491c-2.9224,0.0859-3.1372-1.9339-3.2232-3.9538v-2.9223v-3.0513c0.0859-1.805,0.3008-3.8678,3.2232-3.8248h17.4911  v-4.7703h-17.534c-5.329-0.1289-8.7241,2.4926-8.896,8.5522V74.5455z M101.0796,67.8843h14.096  c1.9769,0,2.9653,0.8595,2.9653,2.5356c0,1.719-0.9884,2.5356-2.9653,2.5356h-12.6349l1.1174,4.9852h10.7869  c2.1058-0.043,3.3091,1.4182,3.481,3.4381l0.1719,4.7703h5.5868c0,0-0.043-4.4695-0.1719-5.372s-0.5157-3.3951-2.7075-4.5984  c5.1571-3.3951,3.2662-13.2365-4.1257-13.2365h-21.273V86.149h5.6728V67.8843H101.0796z M78.0016,86.149h4.9422  c6.1026-0.1289,8.6811-3.567,8.5522-8.896V62.8991h-5.5869v15.5142c0.086,2.9224-1.9769,3.1372-3.9538,3.2232h-3.9538H73.833  c-1.805-0.0859-3.8678-0.3008-3.8248-3.2232V62.8991h-5.7158V77.296c-0.1289,5.329,2.4926,8.7241,8.5522,8.853  C72.8446,86.149,78.0016,86.149,78.0016,86.149z M104.5609,23.8772c-0.4727-8.6812-3.4381-15.0416-7.4778-18.5226  c-4.3836-3.7389-12.549-5.2001-18.8665-5.1571c-6.3174-0.043-14.4828,1.4182-18.8664,5.1571  c-4.0397,3.4811-7.0051,9.8415-7.4778,18.5226c-0.4298,8.1653,1.3322,17.0613,5.9736,22.0895  c4.4694,4.9422,13.4084,6.4893,20.3275,6.4893c6.9191,0.043,15.858-1.5471,20.3275-6.4893  C103.1425,40.8955,104.9474,31.9995,104.5609,23.8772z M76.7123,2.3892c0.8595-0.043,1.0743-0.043,1.4612-0.043  c0.3868,0,0.5587,0,1.4612,0.043l0.043,18.9953c-0.2579,0-2.7504,0-3.0083,0C76.6694,21.3845,76.6694,2.3892,76.7123,2.3892z   M55.3535,31.8704c-0.2579-3.2661-1.2463-15.1704,3.481-21.9606c2.0199-2.9653,4.9852-4.9422,7.9935-5.9736  c4.1686-1.4611,9.1538-1.5471,9.1538-1.5471c-1.9339,4.7704-5.9306,14.9986-6.7042,17.2762  c-0.9454,2.7934-1.762,4.3835-2.5785,9.4117c-0.5158,4.1257-1.4182,14.3969-1.6761,18.8664  C59.4361,45.279,56.084,40.2079,55.3535,31.8704z M78.1306,50.2642c-3.9108-0.0429-8.7241-0.4297-12.5489-2.0628  c1.2893-3.4381,7.4348-18.2217,10.8299-23.9805c0.2578,0,3.2231,0,3.481,0c3.3521,5.7588,9.5406,20.5424,10.83,23.9805  C86.8546,49.8774,82.0843,50.2213,78.1306,50.2642z M100.9507,31.8278c-0.7305,8.3803-4.0827,13.4084-9.6695,16.1159  c-0.2578-4.4695-1.1603-14.7407-1.676-18.8664c-0.8166-5.0712-1.6331-6.6183-2.5786-9.4117  c-0.7735-2.2778-4.7703-12.506-6.7042-17.2763c0,0,4.9852,0.0859,9.1538,1.5471c3.0083,1.0314,5.9736,3.0512,7.9935,5.9736  C102.197,16.7002,101.2085,28.6044,100.9507,31.8278z"/>
</svg>