<?xml version="1.0" encoding="utf-8"?>
<!-- Generator: Adobe Illustrator 26.0.3, SVG Export Plug-In . SVG Version: 6.00 Build 0)  -->
<svg version="1.0" id="katman_1" xmlns="http://www.w3.org/2000/svg" xmlns:xlink="http://www.w3.org/1999/xlink" x="0px" y="0px"
	 viewBox="0 0 600 450" style="enable-background:new 0 0 600 450;" xml:space="preserve">
<path d="M177.2,129.6l17.9,17.1l5.4-5.7l-6.8-6.4l11.1-12.1l-4.3-4.3l-11.1,12.1l-5-5l16.1-17.1l-4.3-4.3L174,127.9
	C175.1,128.6,176.2,128.9,177.2,129.6L177.2,129.6z M216.5,93.6L216.5,93.6l0.4,28.6l6.8-3.9v-5.7l16.1-9.3l4.6,3.2l6.8-3.9
	l-26.8-17.1l-9.6,5.4C215.8,91.4,216.5,92.5,216.5,93.6z M234,100l-10.4,6.1l-0.4-13.2L234,100z M284.4,95h7.5v-7.9h12.9l5.7,7.9
	h8.6l-6.4-8.6l0.7-0.4c3.2-1.8,5.4-5.4,5-9.3c0.4-5.7-3.9-10.4-9.3-10.7c-0.4,0-0.7,0-1.4,0h-23.2H283c0.7,1.1,1.1,2.1,1.4,3.2V95z
	 M306.6,72.5L306.6,72.5c2.1,0,3.9,1.8,3.9,3.9v0.4c0.4,2.1-1.4,3.9-3.6,4.3c-0.4,0-0.4,0-0.7,0h-14.6v-8.6L306.6,72.5z
	 M458.4,203.9c-1.8-10-8.2-17.1-15.7-17.1c-0.7,0-1.4,0-2.1,0.4c-8.6,1.4-13.2,10.7-11.4,21.8c1.8,10.4,7.9,17.1,15.7,17.1
	c0.7,0,1.4,0,2.1-0.4C455.5,224.3,460.2,215,458.4,203.9z M445.5,217.9c-0.4,0-1.1,0-1.4,0c-4.3,0-7.9-3.9-8.9-10
	c-1.1-7.1,1.4-12.1,6.4-12.9c0.4,0,1.1,0,1.4,0c4.3,0,7.9,3.9,8.9,10C453.4,211.8,450.9,217.2,445.5,217.9z M391.6,106.8l-2.9,21.8
	l0.4,0.4l20.7-5l-11.4,15.4l5.7,5.4l17.5-22.9l-6.4-6.1l-18.2,3.9l2.1-18.9l-6.8-6.4l0,0l-0.7-0.7c0,1.4-0.4,2.5-1.4,3.6l-17.9,17.5
	l5.7,5.4L391.6,106.8z M345.8,104.3c2.9,1.1,5.7,1.4,8.6,1.4l0,0c6.4,0.4,12.1-3.2,14.6-9.3c1.4-4.3,0.7-8.6-1.8-12.5
	c-2.9-3.9-6.8-6.8-11.4-8.2c-2.9-1.1-5.7-1.4-8.6-1.4c-6.4-0.7-12.5,3.2-14.6,9.3C329.8,91.8,335.1,100.3,345.8,104.3z M339.8,86.1
	c1.1-3.6,4.6-5.7,8.2-5.4c1.8,0,3.6,0.4,5.4,1.1c6.4,2.5,9.6,7.1,7.9,12.1c-1.1,3.6-4.6,5.7-8.2,5.4c-1.8,0-3.6-0.4-5.4-1.1
	C341.2,95.7,338,91.1,339.8,86.1z M300.1,46.8c-98.6,0-178.6,80-178.6,178.6S201.5,404,300.1,404s178.6-80,178.6-178.6
	S398.7,46.8,300.1,46.8z M300.1,396.8c-94.7,0-171.5-76.8-171.5-171.5S205.5,53.9,300.1,53.9s171.5,76.8,171.5,171.5
	S394.8,396.8,300.1,396.8z M141.9,207.9c0.4-0.4,1.1-0.4,1.4-0.4c0.7,0,1.4,0,1.8,0.4l0,0l22.9,17.5l1.1-7.5l-4.6-3.6l2.9-18.2
	l5.4-1.8l1.1-7.5l-30,10L141.9,207.9z M160.8,198.2L159,210l-10.4-7.9L160.8,198.2z M301.2,166.8l0.4-0.4l0,0l-0.4-0.4
	c-5-3.6-8.6-8.9-10.7-14.6c-1.1-2.5-2.5-5-4.3-7.1c-1.4-1.8-3.9-2.9-6.1-2.9c-1.1,0-2.5,0-3.6,0.4h-0.7l0.4,0.7
	c0.7,1.8,2.1,3.2,3.9,3.9h0.4h1.1c2.1,1.4,3.2,10.7,3.2,15.4c0,0.7-0.4,1.1-1.1,1.1s-1.8-0.4-2.1-1.1c-1.4-1.4-3.2-2.1-5-2.1
	c-3.6-0.4-6.8,2.5-7.1,6.1v0.7c0.4,3.6,3.6,6.4,7.1,6.1c1.8,0,3.9-0.7,5-2.1c0.7-0.7,1.4-1.1,2.1-1.1c0.7,0,1.1,0.4,1.1,1.1
	c0,4.6-1.1,13.9-3.2,15.4h-1.4c-1.8,0.7-3.2,2.1-3.9,3.9l-0.4,0.7h0.7c1.1,0.4,2.5,0.4,3.6,0.4c2.5,0,4.6-1.1,6.1-2.9
	c2.1-2.1,3.6-4.6,4.3-7.1C292.6,175.4,296.6,170.4,301.2,166.8L301.2,166.8z M296.9,127.5c1.8,0,3.2-1.4,3.2-3.2s-1.4-3.2-3.2-3.2
	s-3.2,1.4-3.2,3.2l0,0C293.7,125.7,295.1,127.1,296.9,127.5L296.9,127.5z M295.8,135.4h28.2c1.1,0,2.1-1.1,2.1-2.1
	c0-1.1-1.1-2.1-2.1-2.1h-28.2c-1.1,0-2.1,1.1-2.1,2.1C293.7,134.6,294.8,135.4,295.8,135.4z M300.1,105.3
	c-66.1,0-120,53.9-119.7,120c0.4,66.1,53.9,120,120,119.7c66.1,0,119.7-53.6,119.7-120C420.1,159.3,366.6,105.3,300.1,105.3
	L300.1,105.3z M224.4,310c-20.7-18.6-33.9-43.6-37.2-71.1h37.2V310z M224.4,211.1h-37.2c3.6-27.1,16.4-52.2,37.2-70.4V211.1z
	 M336.9,333.3c-27.5,9.3-57.9,7.9-84.3-4.6v-89.7h32.1c-3.2-9.3-2.1-19.3,2.1-27.9h-34.3v-88.9c32.9-15,71.1-13.9,102.5,3.6l0,0
	c3.9,2.5,5,7.5,2.5,11.4c-1.4,2.5-4.3,3.9-7.1,3.9h-14.3c-2.9-0.4-5.4,0.7-7.5,2.5c-3.9,3.6-2.5,7.5-10.7,7.5h-22.5
	c2.9,5.4,6.8,10,11.8,13.2h27.5c1.1,0,2.1,0.7,2.5,1.8c0,0.4,0,0.7,0.4,1.1v0.4c-0.4,1.4-1.4,2.1-2.5,2.1h-27.9
	c-5.7,3.2-9.6,8.2-11.8,14.3h50.4c3.2-0.4,6.1,2.1,6.4,5.4c0.4,3.2-2.1,6.1-5.4,6.4c-0.4,0-0.7,0-1.1,0h-25.4
	c-17.5,0-31.8,14.3-31.8,31.8s14.3,31.8,31.8,31.8h31.8c1.4,0,2.5,1.1,2.5,2.5s-1.1,2.5-2.5,2.5l0,0h-32.5
	c-12.9,0-23.2,10.4-23.2,23.2c0,12.9,10.4,23.2,23.2,23.2h12.5c6.4,0,11.4,5,11.4,11.4C343.3,326.8,340.8,331.1,336.9,333.3
	L336.9,333.3z M385.5,149.6L385.5,149.6c41.8,47.2,37.5,119-9.6,160.7c-8.6,7.5-18.2,13.9-28.9,18.6l-0.4,0.4l0,0h0.4
	c9.6-4.6,13.6-16.1,8.9-25.4c-3.2-6.8-10-11.1-17.1-11.1h-20c-1.4,0-2.5-1.1-2.5-2.5c0-1.4,1.1-2.5,2.5-2.5h33.9
	c16.1-0.7,28.6-13.9,27.9-30c-0.4-15.4-12.9-27.5-27.9-27.9h-32.9c-1.4,0-2.5-1.1-2.5-2.5c0-1.4,1.1-2.5,2.5-2.5h25
	c26.4,0.4,48.2-21.1,48.2-47.5c0-9.6-2.9-18.9-8.2-27.1l0,0l0,0C384.8,150,385.1,150,385.5,149.6
	C385.1,149.6,385.1,149.6,385.5,149.6C385.5,150,385.1,149.6,385.5,149.6L385.5,149.6z M310.1,127.1c1.8,0,3.2-1.4,3.2-3.2
	c0-1.8-1.4-3.2-3.2-3.2c-1.8,0-3.2,1.4-3.2,3.2l0,0C306.9,125.7,308.3,127.1,310.1,127.1L310.1,127.1z M418.7,157.1l4.6-2.5
	l7.5,14.6l5.4-2.9l-7.5-14.6l4.3-2.5l11.1,21.1l5.4-2.9l-15-28.9c-0.4,1.1-1.4,2.1-2.5,2.9l-21.8,11.8l15,28.9l5-2.9L418.7,157.1z
	 M184.4,150.7l-9.6,19.3l-20-10.4l-4.3,8.2c0.4,0,1.1,0,1.4,0c0.7,0,1.4,0,2.1,0.4l22.1,11.4l13.2-26.1L184.4,150.7z M323,127.1
	c1.8,0,3.2-1.4,3.2-3.2c0-1.8-1.4-3.2-3.2-3.2l0,0c-1.8,0-3.2,1.4-3.2,3.2C319.8,125.7,321.2,127.1,323,127.1L323,127.1z"/>
</svg>
