<svg width="315.229572268" height="317.229120607" viewBox="0 0 372.05334 374.41333" xmlns="http://www.w3.org/2000/svg">
 <metadata id="metadata8">image/svg+xml</metadata>

 <g>
  <title>background</title>
  <rect fill="none" id="canvas_background" height="376.41333" width="374.05334" y="-1" x="-1"/>
 </g>
 <g>
  <title>Layer 1</title>
  <g id="g10" transform="matrix(1.3333333,0,0,-1.3333333,0,671.41333) ">
   <g id="g12" transform="translate(-33,0.75) scale(0.10000000149011612) ">
    <path fill="#ffffff" fill-rule="nonzero" d="m2698.610009,4646.360626c-261.62,246.17 -603.61,381.74 -962.98,381.74c-359.36,0 -701.35,-135.57 -962.97,-381.74c-260.4,-245.02 -416.52,-575.95 -439.59,-931.81c-2.05,-31.5 -3.07,-62.5 -3.07,-92.1c0,-71.17 5.39,-142.79 16.03,-212.85c1.06,-6.97 2.08,-13.87 3.05,-20.64l0.87,-5.86c3.96,-27.26 8.06,-55.45 14.29,-87.18l171.65,-859.74c12.05,-60.44 45.67,-115.87 94.66,-156.06c48.99,-40.18 109.91,-62.29 171.54,-62.29l1867.05,0c61.62,0 122.55,22.11 171.53,62.28c48.99,40.18 82.61,95.61 94.7,156.04l171.71,860.26c6.21,31.48 10.33,59.87 14.32,87.31c1.24,8.59 2.5,17.27 3.8,25.88c10.65,69.98 16.05,141.59 16.05,212.85c0,29.75 -1.02,60.74 -3.06,92.09c-23.09,355.85 -179.22,686.79 -439.58,931.82" id="path14"/>
    <path fill="#0daa4c" fill-rule="nonzero" d="m1337.140009,4665.770626c-136.56,-51.44 -262.84,-129.63 -371.61,-231.99c-207.22,-194.96 -331.43,-458.2 -349.78,-741.19c-1.64,-25.29 -2.47,-50.03 -2.47,-73.46c0,-56.74 4.31,-113.82 12.78,-169.65c1.47,-9.66 2.85,-19.17 4.23,-28.65c3.09,-21.22 6.08,-41.43 9.74,-61.53l697.11,0l0,1306.47" id="path16"/>
    <path fill="#ed1c24" fill-rule="nonzero" d="m2823.670009,3359.300626c3.47,21.89 6.3,41.28 9.24,61.53c1.39,9.48 2.76,18.99 4.23,28.64c8.48,55.76 12.76,112.85 12.76,169.66c0,23.6 -0.82,48.31 -2.45,73.48c-18.35,282.97 -142.59,546.21 -349.77,741.17c-108.1,101.72 -233.48,179.61 -369.08,231.06l0,-1305.54l695.07,0" id="path18"/>
    <path fill="#ffffff" fill-rule="nonzero" d="m2104.360009,4673.750626c-118.42,41.82 -244.18,63.69 -372.76,58.89c-128.58,4.8 -254.34,-17.07 -372.77,-58.89c-7.27,-2.56 -14.48,-5.26 -21.69,-7.98l0,-1306.47l791.46,0l0,1305.54c-8.04,3.05 -16.12,6.04 -24.24,8.91" id="path20"/>
    <path fill="#141111" fill-rule="nonzero" d="m3096.270009,3708.500626c-22.38,345.19 -173.85,666.22 -426.45,903.94c-253.79,238.8 -585.56,370.33 -934.19,370.33c-348.65,0 -680.41,-131.53 -934.19,-370.33c-252.61,-237.72 -404.08,-558.75 -426.46,-903.91c-1.97,-30.45 -2.98,-60.53 -2.98,-89.42c0,-69.06 5.24,-138.55 15.57,-206.52c1.39,-9.14 2.69,-18.14 3.99,-27.08c3.92,-26.94 7.98,-54.79 13.95,-85.16l173.16,-867.4c20.07,-100.59 112.55,-176.44 215.12,-176.44l664.92,0l0,136.28l-664.91,0c-37.48,0 -74.14,30.06 -81.48,66.81l-173.15,867.44c-7.13,36.18 -11.42,70.16 -16.87,106.04c-9.21,60.67 -14.02,122.8 -14.02,186.03c0,27.08 0.97,53.92 2.7,80.57c41.53,640.28 573.87,1146.81 1224.65,1146.81c650.78,0 1183.12,-506.53 1224.64,-1146.81c1.72,-26.65 2.71,-53.49 2.71,-80.57c0,-63.23 -4.8,-125.36 -14.03,-186.03c-5.44,-35.88 -9.74,-69.86 -16.86,-106.04l-173.15,-867.44c-7.34,-36.75 -44,-66.81 -81.48,-66.81l-548.86,0l0,-136.28l548.86,0c102.54,0 195.02,75.83 215.13,176.41l173.21,867.79c5.96,30.18 10.03,58.23 13.97,85.33c1.26,8.79 2.56,17.65 3.9,26.53c10.34,67.88 15.58,137.38 15.58,206.54c0,28.78 -1.01,58.84 -2.98,89.39" id="path22"/>
    <path fill="#141111" fill-rule="nonzero" d="m1658.280009,3099.250626l145.88,0l0,-459.44l-145.88,0l0,459.44zm-199.57,43.26l0,-545.94c0.13,-55.21 45.03,-99.99 100.69,-100.13l242.17,0l0,-103.65l-221.28,0.02l0,-136.28l322.7,0c55.7,0.07 100.62,44.92 100.72,100.07l0,785.88c-0.1,55.29 -45.02,100.04 -100.72,100.17l-343.54,0c-55.71,-0.13 -100.61,-44.88 -100.74,-100.14" id="path24"/>
    <path fill="#141111" fill-rule="nonzero" d="m1138.220009,2639.810626l-145.88,0l0,203.76l145.88,0l0,-203.76zm98.27,602.84l-344.65,0l0,-143.4l246.76,0l0,-112.3l-244.88,0.04c-54.79,-0.08 -99.39,-43.47 -100.93,-100.14l0.04,-290.43c0.53,-54.59 43.9,-98.76 100.58,-99.98l342.8,-0.09c55.55,0.07 100.56,44.48 100.93,102.29l0,543.89c-0.08,55.22 -45.02,100.07 -100.65,100.12" id="path26"/>
    <path fill="#141111" fill-rule="nonzero" d="m2621.560009,2596.440626l134.98,646.21l-194.83,0l-125.05,-602.84l-108.52,0l0,602.84l-199.54,0l0,-747.1l393.4,0c54.8,0.07 88.21,43.86 99.56,100.89" id="path28"/>
   </g>
  </g>
 </g>
</svg>