<svg id="Livello_1" data-name="Livello 1" xmlns="http://www.w3.org/2000/svg" viewBox="0 0 464.45 85.19"><defs><style>.cls-1{fill:#da3832;}.cls-2{fill:#fff;}</style></defs><path class="cls-1" d="M313.63,435.51c1-21-10.64-37.7-33.93-37.7-19.16,0-35.06,13.6-35.06,32.57,0,20.75,14.4,32.92,35.56,32.92,14.52,0,28.42-6.2,32.31-20.52H292.6c-2,4.53-7,6.81-12.15,6.81-9,0-14.15-5.61-14.52-14.08Zm-47.7-11.34c1.25-7.51,6.25-12.64,13.77-12.64,7.14,0,12.27,5.73,12.64,12.64Z" transform="translate(-73.46 -378.13)"/><path class="cls-1" d="M318.32,463.3h21.49V427.75c0-6.79,3.54-13.24,11.63-13.24,11.76,0,10.74,8.59,10.74,17.06V463.3h21.49V421.79c0-9-1.77-24-23.63-24-7.84,0-16.69,3.94-20.61,10.26h-.25v-8.93H318.32Z" transform="translate(-73.46 -378.13)"/><path class="cls-1" d="M457.11,435.51c1-21-10.64-37.7-33.93-37.7-19.16,0-35.06,13.6-35.06,32.57,0,20.75,14.4,32.92,35.56,32.92,14.53,0,28.43-6.2,32.31-20.52H436.08c-2,4.53-7,6.81-12.15,6.81-9,0-14.15-5.61-14.52-14.08Zm-47.7-11.34c1.25-7.51,6.26-12.64,13.77-12.64,7.14,0,12.27,5.73,12.65,12.64Z" transform="translate(-73.46 -378.13)"/><rect class="cls-1" x="388.49" width="20.68" height="85.17"/><rect class="cls-1" x="416.3" width="20.67" height="85.17"/><rect class="cls-1" x="443.77" y="23.26" width="20.68" height="61.92"/><path class="cls-1" d="M517.23,388.47a10.34,10.34,0,1,1,10.33,10.34,10.33,10.33,0,0,1-10.33-10.34" transform="translate(-73.46 -378.13)"/><rect class="cls-1" width="85.16" height="13.79"/><path class="cls-1" d="M158.62,395.27S115,393.48,73.46,415.18V463.3h85.16Z" transform="translate(-73.46 -378.13)"/><path class="cls-1" d="M168.68,463.31h40.09c17.88,0,32.48-6.2,32.48-26.48,0-9.66-5.49-17.54-14.37-20.16,6.55-3.34,11-9.55,11-17.18,0-17.77-15.78-21.59-30.16-21.35h-39Zm21.73-68h16.84c4.56,0,8.88,2,8.88,8.24s-5.14,8.11-8.88,8.11H190.41Zm0,30.66h17.42c6.54,0,11.69,2.51,11.69,10,0,7-4.79,9.55-11.69,9.55H190.41Z" transform="translate(-73.46 -378.13)"/><path class="cls-2" d="M73.46,391.92h0m85.16,0H73.46v23.27c41.54-21.71,85.16-19.92,85.16-19.92" transform="translate(-73.46 -378.13)"/></svg>