<svg viewBox="0 0 600 165.3" xmlns="http://www.w3.org/2000/svg"><path d="m53.51 5.3a82.64 82.64 0 1 1 29.12 160c-45.63 0-82.63-31.7-82.63-85.81v-74h18.71v74.6c0 40.38 28.62 66.46 63.92 66.46a63.92 63.92 0 1 0 -29.12-120.83z" fill="#ed1d24"/><g fill="#231f20"><path d="m53.51 35a55.87 55.87 0 1 1 29.12 103.52c-30.86 0-55.88-21.2-55.88-62.23v-70.78h18.71v72.05c0 27.31 16.64 42.25 37.17 42.25a37.16 37.16 0 1 0 0-74.32 44.83 44.83 0 0 0 -29.12 10.51z"/><path d="m526.22 106.77v20c-.84.07-1.58.11-2.18.11a31.52 31.52 0 0 1 -9.64-1.45 28.24 28.24 0 0 1 -8.47-4.13 28.82 28.82 0 0 1 -6.82-6.54 34.37 34.37 0 0 1 -3.78-6.68 29.43 29.43 0 0 1 -1.86-7.57 96.78 96.78 0 0 1 -.55-11.29v-49.38h21.28v17.16h12v19.5h-12.87v17.78c0 8 3.72 13.74 12.89 12.49"/><path d="m451 56.1a35.4 35.4 0 1 0 35.4 35.4 35.38 35.38 0 0 0 -35.4-35.4zm0 50.35a15 15 0 1 1 15-15 15 15 0 0 1 -15 15"/><path d="m283.36 56.98h20.42v68.49h-20.42z"/><path d="m283.36 39.84h20.42v11.68h-20.42z"/><path d="m361.08 63.46c6.61-5.48 12-7.59 19.41-7.59a27.17 27.17 0 0 1 22.51 11.25c4.5 6.19 5.77 11.39 5.77 23.78v34.57h-20.42v-36.21c0-5.73-.26-7.29-1.82-9.51a7.72 7.72 0 0 0 -6.53-3.26 8 8 0 0 0 -6.64 3.26c-1.56 2.22-2.08 4.43-2.08 9.38v36.34h-20.41v-36.34c0-5-.52-7.16-2.08-9.38a8 8 0 0 0 -6.64-3.26 7.69 7.69 0 0 0 -6.51 3.26c-1.56 2.22-1.83 3.78-1.83 9.51v36.21h-20.41v-34.57c0-12.39 1.26-17.59 5.77-23.78a27.15 27.15 0 0 1 22.5-11.25c7.46 0 12.8 2.11 19.41 7.59"/><path d="m271.4 73.42a34 34 0 0 0 -13-12.74 36.78 36.78 0 0 0 -18.11-4.62 36 36 0 0 0 -7.8 1l-.31.08v21.45a21.14 21.14 0 0 1 11.37-1.68 14.81 14.81 0 1 1 -12.24 25.82c-3.82-3.54-5.17-6.32-5.17-14.23v-48.66h-20.43v52.1a34.9 34.9 0 0 0 35.29 34.91 34.06 34.06 0 0 0 17.69-4.75 35.77 35.77 0 0 0 17.43-30.85 34.71 34.71 0 0 0 -4.76-17.83"/><path d="m595.32 73.48a35.07 35.07 0 0 0 -30.72-17.35 33.85 33.85 0 0 0 -17.6 4.76 34.69 34.69 0 0 0 -12.74 12.94 35.39 35.39 0 0 0 -4.76 17.9 34.35 34.35 0 0 0 4.76 17.77 33.85 33.85 0 0 0 13.08 12.74 36.27 36.27 0 0 0 18 4.68 33.26 33.26 0 0 0 8.19-1.11v-21.37a24.5 24.5 0 0 1 -8.81 1.93 14.84 14.84 0 1 1 10.51-25.32c3.19 3.35 4.33 6.38 4.33 14v30.48h20.44v-34.53a34.6 34.6 0 0 0 -4.68-17.56"/></g></svg>