<?xml version="1.0" encoding="UTF-8" standalone="no"?>
<!-- Generator: Adobe Illustrator 26.0.3, SVG Export Plug-In . SVG Version: 6.00 Build 0)  -->

<svg
   version="1.1"
   id="Layer_1"
   x="0px"
   y="0px"
   viewBox="0 0 850.42002 829.15998"
   xml:space="preserve"
   sodipodi:docname="Citroen 2022.svg"
   width="850.41998"
   height="829.15997"
   inkscape:version="1.1.2 (b8e25be833, 2022-02-05)"
   xmlns:inkscape="http://www.inkscape.org/namespaces/inkscape"
   xmlns:sodipodi="http://sodipodi.sourceforge.net/DTD/sodipodi-0.dtd"
   xmlns="http://www.w3.org/2000/svg"
   xmlns:svg="http://www.w3.org/2000/svg"><defs
   id="defs882" /><sodipodi:namedview
   id="namedview880"
   pagecolor="#ffffff"
   bordercolor="#666666"
   borderopacity="1.0"
   inkscape:pageshadow="2"
   inkscape:pageopacity="0.0"
   inkscape:pagecheckerboard="0"
   showgrid="false"
   fit-margin-top="0"
   fit-margin-left="0"
   fit-margin-right="0"
   fit-margin-bottom="0"
   inkscape:zoom="0.79564153"
   inkscape:cx="316.09712"
   inkscape:cy="394.02166"
   inkscape:window-width="1920"
   inkscape:window-height="989"
   inkscape:window-x="-9"
   inkscape:window-y="-9"
   inkscape:window-maximized="1"
   inkscape:current-layer="Layer_1" />
<g
   id="fond_blanc"
   transform="translate(-111.95,-84.16)">
	<g
   id="g876">
		<g
   id="g872">
			<polygon
   points="343.97,910.9 362.76,910.9 362.76,842.52 410.52,842.52 410.52,826.6 296.2,826.6 296.2,842.52 343.97,842.52 "
   id="polygon854" />
			<rect
   x="255.88"
   y="826.59998"
   width="18.799999"
   height="84.300003"
   id="rect856" />
			<path
   d="m 919.16,827 h -68.77 v 84.17 h 18.8 v -68.26 h 45.54 c 17.74,0 28.84,6.53 28.84,26.36 v 41.89 h 18.8 V 866.92 C 962.36,844.48 949.44,827 919.16,827"
   id="path858" />
			<path
   d="m 783.04,816.55 h 27.66 c 3.14,0 5.87,-2.74 5.87,-6.01 0,-3.39 -2.74,-6.13 -5.87,-6.13 h -27.66 c -3.39,0 -6.14,2.74 -6.14,6.13 0,3.27 2.75,6.01 6.14,6.01"
   id="path860" />
			<path
   d="m 513.1,877.86 c 26.02,-0.61 34.57,-7.55 34.57,-25.28 0,-16.06 -11.48,-25.58 -30.92,-25.58 h -84.69 v 84.17 h 18.79 v -68.26 h 66.03 c 7.44,0 11.36,3.37 11.36,10.05 0,5.87 -1.86,11.56 -13.97,11.19 h -47.49 v 4.86 l 57.94,41.89 h 27.27 l -48.17,-33.05 h 9.28 z"
   id="path862" />
			<path
   d="m 650.88,825.2 c -5.72,-0.23 -11.56,-0.36 -17.37,-0.36 -9.89,0 -16.3,0.36 -16.36,0.36 h -0.32 c -13.67,0.44 -25.32,5 -33.68,13.18 -8.02,7.85 -12.43,18.72 -12.43,30.64 v 0.12 c 0,25.57 18.58,43.18 46.24,43.82 5.73,0.25 11.57,0.36 17.38,0.36 9.88,0 16.3,-0.35 16.36,-0.36 h 0.31 c 13.67,-0.44 25.32,-5 33.69,-13.18 8.02,-7.83 12.43,-18.72 12.43,-30.64 v -0.12 c 0,-25.06 -18.59,-42.67 -46.25,-43.82 m 26.21,43.66 c -0.06,16.23 -10.62,26.76 -27.56,27.47 h -0.38 l -0.36,0.02 c -1.03,0.08 -5.01,0.36 -13.6,0.36 -5.74,0 -11.25,-0.12 -16.36,-0.37 l -0.3,-0.01 c -17.13,-0.44 -27.77,-10.97 -27.77,-27.48 0,-16.33 10.56,-26.91 27.56,-27.62 h 0.38 l 0.35,-0.01 c 0.06,-0.01 7.13,-0.36 16.82,-0.36 5.45,0 7.78,0.11 12.42,0.33 l 0.73,0.03 c 17.58,0.82 28.07,11.09 28.07,27.5 z"
   id="path864" />
			<polygon
   points="824.14,895.24 740.36,895.24 740.36,876.32 813.83,876.32 813.83,861.07 740.36,861.07 740.36,842.91 824.14,842.91 824.14,827 721.57,827 721.57,911.17 824.14,911.17 "
   id="polygon866" />
			<path
   d="m 735.02,816.55 h 27.53 c 3.27,0 6.01,-2.74 6.01,-6.01 0,-3.39 -2.74,-6.13 -6.01,-6.13 h -27.53 c -3.39,0 -6.14,2.74 -6.14,6.13 0,3.27 2.74,6.01 6.14,6.01"
   id="path868" />
			<path
   d="m 157.46,827.26 h -0.29 c -13.4,0.42 -24.83,4.74 -33.04,12.5 -7.86,7.45 -12.18,17.77 -12.18,29.08 v 0.12 c 0,24.26 18.22,40.97 45.33,41.59 7.63,0.32 30.64,0.35 40.19,0.35 12.34,0 24.12,-0.05 27.61,-0.12 v -16.1 c -5.25,0.06 -45.21,0.12 -49.92,0.12 -5.57,0 -11.16,-0.11 -16.19,-0.34 -16.62,-0.4 -27.38,-10.41 -27.38,-25.5 0,-15.1 10.61,-25.26 27.03,-25.89 h 0.37 l 0.35,-0.02 c 0.06,0 6.95,-0.33 16.48,-0.33 2.66,0 43.7,0.05 49.27,0.14 v -15.82 c -3.7,-0.08 -9.47,-0.13 -17.17,-0.13 -21.12,0 -50.17,0.34 -50.46,0.35"
   id="path870" />
		</g>
		<path
   d="m 537.16,84.16 c -139.42,0 -252.85,140.77 -252.85,313.79 0,173.02 113.43,313.8 252.85,313.8 139.42,0 252.86,-140.77 252.86,-313.8 0,-173.03 -113.43,-313.79 -252.86,-313.79 z m -206.25,422.4 -0.24,-0.73 c -8.38,-25.91 -10.87,-48.61 -10.89,-48.84 l -0.03,-0.32 0.26,-0.19 217.15,-160.58 217.42,160.77 -0.03,0.32 c -0.03,0.23 -2.51,22.93 -10.89,48.84 l -0.24,0.73 -0.62,-0.46 -0.01,0.03 L 537.15,353.62 330.92,506.59 Z m 206.25,175.57 c -72.42,0 -140.22,-44.85 -182.18,-120.21 l -0.5,-0.97 182.67,-135.08 182.7,135.1 -0.48,0.87 0.01,0.01 c -41.95,75.4 -109.75,120.28 -182.22,120.28 z m 0,-459.69 -223.04,165.43 0.03,-1.14 c 2.25,-73.39 26.46,-142.02 68.15,-193.24 41.85,-51.4 96.84,-79.71 154.86,-79.71 58.02,0 113.01,28.31 154.86,79.71 41.7,51.22 65.9,119.85 68.15,193.24 l 0.03,1.14 -0.92,-0.68 z"
   id="path874" />
	</g>
</g>
</svg>
