<?xml version="1.0" encoding="UTF-8"?>
<svg xmlns="http://www.w3.org/2000/svg" xmlns:xlink="http://www.w3.org/1999/xlink" width="537pt" height="326pt" viewBox="0 0 537 326" version="1.1">
<g id="surface1">
<path style="fill-rule:evenodd;fill:rgb(86.698914%,87.5%,88.198853%);fill-opacity:1;stroke-width:2.16;stroke-linecap:butt;stroke-linejoin:miter;stroke:rgb(86.698914%,87.5%,88.198853%);stroke-opacity:1;stroke-miterlimit:2.6131;" d="M 4524.453125 2165.429688 L 4521.40625 1522.578125 L 5369.453125 1875.664063 Z M 4524.453125 2165.429688 " transform="matrix(0.1,0,0,-0.1,0,326)"/>
<path style="fill-rule:evenodd;fill:rgb(72.499084%,72.499084%,72.898865%);fill-opacity:1;stroke-width:2.16;stroke-linecap:butt;stroke-linejoin:miter;stroke:rgb(72.499084%,72.499084%,72.898865%);stroke-opacity:1;stroke-miterlimit:2.6131;" d="M 4524.453125 1874.179688 L 4521.40625 1522.578125 L 5369.453125 1875.664063 Z M 4524.453125 1874.179688 " transform="matrix(0.1,0,0,-0.1,0,326)"/>
<path style="fill-rule:evenodd;fill:rgb(86.698914%,87.5%,88.198853%);fill-opacity:1;stroke-width:2.16;stroke-linecap:butt;stroke-linejoin:miter;stroke:rgb(86.698914%,87.5%,88.198853%);stroke-opacity:1;stroke-miterlimit:2.6131;" d="M 850.585938 2181.914063 L 853.671875 1539.101563 L 5.585938 1892.148438 Z M 850.585938 2181.914063 " transform="matrix(0.1,0,0,-0.1,0,326)"/>
<path style="fill-rule:evenodd;fill:rgb(72.499084%,72.499084%,72.898865%);fill-opacity:1;stroke-width:2.16;stroke-linecap:butt;stroke-linejoin:miter;stroke:rgb(72.499084%,72.499084%,72.898865%);stroke-opacity:1;stroke-miterlimit:2.6131;" d="M 850.585938 1890.664063 L 853.671875 1539.101563 L 5.585938 1892.148438 Z M 850.585938 1890.664063 " transform="matrix(0.1,0,0,-0.1,0,326)"/>
<path style="fill-rule:evenodd;fill:rgb(86.698914%,87.5%,88.198853%);fill-opacity:1;stroke-width:2.16;stroke-linecap:butt;stroke-linejoin:miter;stroke:rgb(86.698914%,87.5%,88.198853%);stroke-opacity:1;stroke-miterlimit:2.6131;" d="M 3122.851563 2839.921875 L 2138.632813 2842.070313 L 2632.03125 3253.125 Z M 3122.851563 2839.921875 " transform="matrix(0.1,0,0,-0.1,0,326)"/>
<path style="fill-rule:evenodd;fill:rgb(92.89856%,12.5%,16.099548%);fill-opacity:1;stroke-width:2.16;stroke-linecap:butt;stroke-linejoin:miter;stroke:rgb(92.89856%,12.5%,16.099548%);stroke-opacity:1;stroke-miterlimit:2.6131;" d="M 2137.03125 2841.09375 L 2628.398438 3249.726563 L 2628.789063 2841.015625 Z M 2137.03125 2841.09375 " transform="matrix(0.1,0,0,-0.1,0,326)"/>
<path style="fill-rule:evenodd;fill:rgb(86.698914%,87.5%,88.198853%);fill-opacity:1;stroke-width:2.16;stroke-linecap:butt;stroke-linejoin:miter;stroke:rgb(86.698914%,87.5%,88.198853%);stroke-opacity:1;stroke-miterlimit:2.6131;" d="M 3122.851563 583.671875 L 2187.382813 580.664063 L 2656.328125 2.96875 Z M 3122.851563 583.671875 " transform="matrix(0.1,0,0,-0.1,0,326)"/>
<path style="fill-rule:evenodd;fill:rgb(72.499084%,72.499084%,72.898865%);fill-opacity:1;stroke-width:2.16;stroke-linecap:butt;stroke-linejoin:miter;stroke:rgb(72.499084%,72.499084%,72.898865%);stroke-opacity:1;stroke-miterlimit:2.6131;" d="M 2185.820313 582.03125 L 2653.398438 8.554688 L 2653.085938 582.1875 Z M 2185.820313 582.03125 " transform="matrix(0.1,0,0,-0.1,0,326)"/>
<path style=" stroke:none;fill-rule:evenodd;fill:rgb(86.698914%,87.5%,88.198853%);fill-opacity:1;" d="M 268.660156 38.496094 C 378.597656 38.496094 468.261719 90.601563 468.261719 154.484375 C 468.261719 218.371094 378.597656 270.472656 268.660156 270.472656 C 158.726563 270.472656 69.0625 218.371094 69.0625 154.484375 C 69.0625 90.601563 158.726563 38.496094 268.660156 38.496094 "/>
<path style="fill:none;stroke-width:20.0013;stroke-linecap:butt;stroke-linejoin:miter;stroke:rgb(82.398987%,82.398987%,82.398987%);stroke-opacity:1;stroke-miterlimit:2.6131;" d="M 2686.601563 2875.039063 C 3785.976563 2875.039063 4682.617188 2353.984375 4682.617188 1715.15625 C 4682.617188 1076.289063 3785.976563 555.273438 2686.601563 555.273438 C 1587.265625 555.273438 690.625 1076.289063 690.625 1715.15625 C 690.625 2353.984375 1587.265625 2875.039063 2686.601563 2875.039063 Z M 2686.601563 2875.039063 " transform="matrix(0.1,0,0,-0.1,0,326)"/>
<path style=" stroke:none;fill-rule:evenodd;fill:rgb(0%,0%,0%);fill-opacity:1;" d="M 268.726563 45.53125 C 367.671875 45.53125 448.367188 91.28125 448.367188 147.378906 C 448.367188 203.46875 367.671875 249.21875 268.726563 249.21875 C 169.785156 249.21875 89.085938 203.46875 89.085938 147.378906 C 89.085938 91.28125 169.785156 45.53125 268.726563 45.53125 "/>
<path style="fill:none;stroke-width:2.16;stroke-linecap:butt;stroke-linejoin:miter;stroke:rgb(0%,0%,0%);stroke-opacity:1;stroke-miterlimit:2.6131;" d="M 2687.265625 2804.6875 C 3676.71875 2804.6875 4483.671875 2347.1875 4483.671875 1786.210938 C 4483.671875 1225.3125 3676.71875 767.8125 2687.265625 767.8125 C 1697.851563 767.8125 890.859375 1225.3125 890.859375 1786.210938 C 890.859375 2347.1875 1697.851563 2804.6875 2687.265625 2804.6875 Z M 2687.265625 2804.6875 " transform="matrix(0.1,0,0,-0.1,0,326)"/>
<path style=" stroke:none;fill-rule:evenodd;fill:rgb(86.698914%,87.5%,88.198853%);fill-opacity:1;" d="M 148.585938 114.347656 L 94.703125 114.347656 L 94.703125 108.242188 C 94.703125 106.316406 95.6875 104.839844 97.65625 103.8125 C 99.265625 102.917969 101.101563 102.46875 103.15625 102.46875 L 140.132813 102.46875 C 142.1875 102.46875 144.023438 102.894531 145.632813 103.746094 C 147.601563 104.820313 148.585938 106.316406 148.585938 108.242188 Z M 148.585938 140.855469 L 103.15625 140.855469 C 102.710938 140.855469 101.972656 140.71875 100.941406 140.449219 C 96.78125 139.421875 94.703125 137.589844 94.703125 134.949219 L 94.703125 120.1875 L 106.511719 120.1875 L 106.511719 128.976563 C 106.511719 130.363281 107.230469 131.28125 108.660156 131.726563 C 109.0625 131.863281 109.332031 131.953125 109.464844 131.996094 L 148.585938 131.996094 Z M 201.800781 114.347656 L 189.988281 114.347656 C 189.945313 112.378906 189.140625 111.394531 187.574219 111.394531 L 166.367188 111.394531 L 166.367188 114.347656 L 154.558594 114.347656 L 154.558594 102.46875 L 193.34375 102.46875 C 195.445313 102.46875 197.28125 102.894531 198.847656 103.746094 C 200.816406 104.820313 201.800781 106.316406 201.800781 108.242188 Z M 201.800781 140.855469 L 188.78125 140.855469 L 180.328125 129.042969 L 166.367188 129.042969 L 166.367188 140.855469 L 154.558594 140.855469 L 154.558594 120.1875 L 201.800781 120.1875 L 201.800781 123.136719 C 201.800781 126.046875 199.339844 127.96875 194.417969 128.910156 C 194.148438 128.953125 193.792969 129 193.34375 129.042969 Z M 261.65625 114.347656 L 207.773438 114.347656 L 207.773438 108.242188 C 207.773438 106.316406 208.757813 104.839844 210.726563 103.8125 C 212.335938 102.917969 214.171875 102.46875 216.226563 102.46875 L 253.203125 102.46875 C 255.257813 102.46875 257.09375 102.894531 258.703125 103.746094 C 260.671875 104.820313 261.65625 106.316406 261.65625 108.242188 Z M 261.65625 134.949219 C 261.65625 137.8125 259.175781 139.734375 254.207031 140.71875 C 253.714844 140.808594 253.378906 140.855469 253.203125 140.855469 L 216.226563 140.855469 C 215.78125 140.855469 215.042969 140.71875 214.011719 140.449219 C 209.851563 139.421875 207.773438 137.589844 207.773438 134.949219 L 207.773438 120.1875 L 219.582031 120.1875 L 219.582031 128.976563 C 219.582031 130.363281 220.296875 131.28125 221.730469 131.726563 C 222.132813 131.863281 222.398438 131.953125 222.535156 131.996094 L 246.289063 131.996094 C 247.050781 131.996094 247.832031 131.671875 248.636719 131.023438 C 249.445313 130.375 249.847656 129.691406 249.847656 128.976563 L 249.847656 120.1875 L 261.65625 120.1875 Z M 315.609375 114.347656 L 302.589844 114.347656 C 302.5 112.378906 301.671875 111.394531 300.105469 111.394531 L 282.390625 111.394531 C 280.601563 111.394531 279.617188 112.378906 279.4375 114.347656 L 267.628906 114.347656 L 267.628906 108.242188 C 267.628906 106.316406 268.613281 104.839844 270.582031 103.8125 C 272.191406 102.917969 274.027344 102.46875 276.085938 102.46875 L 307.152344 102.46875 C 309.210938 102.46875 311.046875 102.894531 312.65625 103.746094 C 314.625 104.820313 315.609375 106.316406 315.609375 108.242188 Z M 315.609375 134.949219 C 315.609375 137.8125 313.125 139.734375 308.160156 140.71875 C 307.667969 140.808594 307.332031 140.855469 307.152344 140.855469 L 267.628906 140.855469 L 267.628906 131.996094 L 300.242188 131.996094 C 301.808594 131.996094 302.589844 131.503906 302.589844 130.519531 C 302.589844 129.492188 301.808594 128.976563 300.242188 128.976563 L 276.085938 128.976563 C 273.578125 128.976563 271.589844 128.214844 270.113281 126.695313 C 268.949219 125.441406 268.234375 124.03125 267.964844 122.46875 C 267.921875 122.421875 267.808594 121.660156 267.628906 120.1875 L 307.152344 120.1875 C 309.480469 120.1875 311.402344 120.699219 312.925781 121.730469 C 314.714844 122.890625 315.609375 124.59375 315.609375 126.828125 Z M 369.15625 114.347656 L 356.140625 114.347656 C 356.050781 112.378906 355.222656 111.394531 353.65625 111.394531 L 335.941406 111.394531 C 334.152344 111.394531 333.164063 112.378906 332.988281 114.347656 L 321.175781 114.347656 L 321.175781 108.242188 C 321.175781 106.316406 322.160156 104.839844 324.128906 103.8125 C 325.738281 102.917969 327.574219 102.46875 329.632813 102.46875 L 360.703125 102.46875 C 362.757813 102.46875 364.59375 102.894531 366.203125 103.746094 C 368.171875 104.820313 369.15625 106.316406 369.15625 108.242188 Z M 369.15625 134.949219 C 369.15625 137.8125 366.671875 139.734375 361.707031 140.71875 C 361.214844 140.808594 360.882813 140.855469 360.703125 140.855469 L 321.175781 140.855469 L 321.175781 131.996094 L 353.789063 131.996094 C 355.355469 131.996094 356.140625 131.503906 356.140625 130.519531 C 356.140625 129.492188 355.355469 128.976563 353.789063 128.976563 L 329.632813 128.976563 C 327.128906 128.976563 325.136719 128.214844 323.660156 126.695313 C 322.496094 125.441406 321.78125 124.03125 321.511719 122.46875 C 321.46875 122.421875 321.355469 121.660156 321.175781 120.1875 L 360.703125 120.1875 C 363.027344 120.1875 364.953125 120.699219 366.472656 121.730469 C 368.261719 122.890625 369.15625 124.59375 369.15625 126.828125 L 369.15625 134.949219 "/>
<path style="fill:none;stroke-width:2.16;stroke-linecap:butt;stroke-linejoin:miter;stroke:rgb(86.698914%,87.5%,88.198853%);stroke-opacity:1;stroke-miterlimit:2.6131;" d="M 1485.859375 2116.523438 L 947.03125 2116.523438 L 947.03125 2177.578125 C 947.03125 2196.835938 956.875 2211.601563 976.5625 2221.875 C 992.65625 2230.820313 1011.015625 2235.3125 1031.5625 2235.3125 L 1401.328125 2235.3125 C 1421.875 2235.3125 1440.234375 2231.054688 1456.328125 2222.539063 C 1476.015625 2211.796875 1485.859375 2196.835938 1485.859375 2177.578125 Z M 1485.859375 1851.445313 L 1031.5625 1851.445313 C 1027.109375 1851.445313 1019.726563 1852.8125 1009.414063 1855.507813 C 967.8125 1865.78125 947.03125 1884.101563 947.03125 1910.507813 L 947.03125 2058.125 L 1065.117188 2058.125 L 1065.117188 1970.234375 C 1065.117188 1956.367188 1072.304688 1947.1875 1086.601563 1942.734375 C 1090.625 1941.367188 1093.320313 1940.46875 1094.648438 1940.039063 L 1485.859375 1940.039063 Z M 2018.007813 2116.523438 L 1899.882813 2116.523438 C 1899.453125 2136.210938 1891.40625 2146.054688 1875.742188 2146.054688 L 1663.671875 2146.054688 L 1663.671875 2116.523438 L 1545.585938 2116.523438 L 1545.585938 2235.3125 L 1933.4375 2235.3125 C 1954.453125 2235.3125 1972.8125 2231.054688 1988.476563 2222.539063 C 2008.164063 2211.796875 2018.007813 2196.835938 2018.007813 2177.578125 Z M 2018.007813 1851.445313 L 1887.8125 1851.445313 L 1803.28125 1969.570313 L 1663.671875 1969.570313 L 1663.671875 1851.445313 L 1545.585938 1851.445313 L 1545.585938 2058.125 L 2018.007813 2058.125 L 2018.007813 2028.632813 C 2018.007813 1999.53125 1993.398438 1980.3125 1944.179688 1970.898438 C 1941.484375 1970.46875 1937.929688 1970 1933.4375 1969.570313 Z M 2616.5625 2116.523438 L 2077.734375 2116.523438 L 2077.734375 2177.578125 C 2077.734375 2196.835938 2087.578125 2211.601563 2107.265625 2221.875 C 2123.359375 2230.820313 2141.71875 2235.3125 2162.265625 2235.3125 L 2532.03125 2235.3125 C 2552.578125 2235.3125 2570.9375 2231.054688 2587.03125 2222.539063 C 2606.71875 2211.796875 2616.5625 2196.835938 2616.5625 2177.578125 Z M 2616.5625 1910.507813 C 2616.5625 1881.875 2591.757813 1862.65625 2542.070313 1852.8125 C 2537.148438 1851.914063 2533.789063 1851.445313 2532.03125 1851.445313 L 2162.265625 1851.445313 C 2157.8125 1851.445313 2150.429688 1852.8125 2140.117188 1855.507813 C 2098.515625 1865.78125 2077.734375 1884.101563 2077.734375 1910.507813 L 2077.734375 2058.125 L 2195.820313 2058.125 L 2195.820313 1970.234375 C 2195.820313 1956.367188 2202.96875 1947.1875 2217.304688 1942.734375 C 2221.328125 1941.367188 2223.984375 1940.46875 2225.351563 1940.039063 L 2462.890625 1940.039063 C 2470.507813 1940.039063 2478.320313 1943.28125 2486.367188 1949.765625 C 2494.453125 1956.25 2498.476563 1963.085938 2498.476563 1970.234375 L 2498.476563 2058.125 L 2616.5625 2058.125 Z M 3156.09375 2116.523438 L 3025.898438 2116.523438 C 3025 2136.210938 3016.71875 2146.054688 3001.054688 2146.054688 L 2823.90625 2146.054688 C 2806.015625 2146.054688 2796.171875 2136.210938 2794.375 2116.523438 L 2676.289063 2116.523438 L 2676.289063 2177.578125 C 2676.289063 2196.835938 2686.132813 2211.601563 2705.820313 2221.875 C 2721.914063 2230.820313 2740.273438 2235.3125 2760.859375 2235.3125 L 3071.523438 2235.3125 C 3092.109375 2235.3125 3110.46875 2231.054688 3126.5625 2222.539063 C 3146.25 2211.796875 3156.09375 2196.835938 3156.09375 2177.578125 Z M 3156.09375 1910.507813 C 3156.09375 1881.875 3131.25 1862.65625 3081.601563 1852.8125 C 3076.679688 1851.914063 3073.320313 1851.445313 3071.523438 1851.445313 L 2676.289063 1851.445313 L 2676.289063 1940.039063 L 3002.421875 1940.039063 C 3018.085938 1940.039063 3025.898438 1944.960938 3025.898438 1954.804688 C 3025.898438 1965.078125 3018.085938 1970.234375 3002.421875 1970.234375 L 2760.859375 1970.234375 C 2735.78125 1970.234375 2715.898438 1977.851563 2701.132813 1993.046875 C 2689.492188 2005.585938 2682.34375 2019.6875 2679.648438 2035.3125 C 2679.21875 2035.78125 2678.085938 2043.398438 2676.289063 2058.125 L 3071.523438 2058.125 C 3094.804688 2058.125 3114.023438 2053.007813 3129.257813 2042.695313 C 3147.148438 2031.09375 3156.09375 2014.0625 3156.09375 1991.71875 Z M 3691.5625 2116.523438 L 3561.40625 2116.523438 C 3560.507813 2136.210938 3552.226563 2146.054688 3536.5625 2146.054688 L 3359.414063 2146.054688 C 3341.523438 2146.054688 3331.640625 2136.210938 3329.882813 2116.523438 L 3211.757813 2116.523438 L 3211.757813 2177.578125 C 3211.757813 2196.835938 3221.601563 2211.601563 3241.289063 2221.875 C 3257.382813 2230.820313 3275.742188 2235.3125 3296.328125 2235.3125 L 3607.03125 2235.3125 C 3627.578125 2235.3125 3645.9375 2231.054688 3662.03125 2222.539063 C 3681.71875 2211.796875 3691.5625 2196.835938 3691.5625 2177.578125 Z M 3691.5625 1910.507813 C 3691.5625 1881.875 3666.71875 1862.65625 3617.070313 1852.8125 C 3612.148438 1851.914063 3608.828125 1851.445313 3607.03125 1851.445313 L 3211.757813 1851.445313 L 3211.757813 1940.039063 L 3537.890625 1940.039063 C 3553.554688 1940.039063 3561.40625 1944.960938 3561.40625 1954.804688 C 3561.40625 1965.078125 3553.554688 1970.234375 3537.890625 1970.234375 L 3296.328125 1970.234375 C 3271.289063 1970.234375 3251.367188 1977.851563 3236.601563 1993.046875 C 3224.960938 2005.585938 3217.8125 2019.6875 3215.117188 2035.3125 C 3214.6875 2035.78125 3213.554688 2043.398438 3211.757813 2058.125 L 3607.03125 2058.125 C 3630.273438 2058.125 3649.53125 2053.007813 3664.726563 2042.695313 C 3682.617188 2031.09375 3691.5625 2014.0625 3691.5625 1991.71875 Z M 3691.5625 1910.507813 " transform="matrix(0.1,0,0,-0.1,0,326)"/>
<path style=" stroke:none;fill-rule:evenodd;fill:rgb(86.698914%,87.5%,88.198853%);fill-opacity:1;" d="M 160.300781 165.152344 L 148.496094 165.152344 L 148.496094 153.390625 L 160.300781 153.390625 Z M 184.585938 191.398438 L 148.496094 191.398438 L 148.496094 170.933594 L 160.300781 170.933594 L 160.300781 182.628906 L 184.585938 182.628906 Z M 237.914063 191.398438 L 225.972656 191.398438 L 220.203125 179.703125 L 208.128906 179.703125 L 202.359375 191.398438 L 190.554688 191.398438 L 200.683594 170.933594 L 227.71875 170.933594 Z M 218.730469 153.390625 L 224.765625 165.152344 L 203.566406 165.152344 L 209.605469 153.390625 Z M 288.289063 165.152344 L 276.484375 165.152344 L 276.484375 153.390625 L 288.289063 153.390625 Z M 267.898438 165.152344 L 243.75 165.152344 L 243.75 153.390625 L 260.722656 153.390625 Z M 288.289063 191.398438 L 269.238281 191.398438 L 257.5 170.933594 L 271.320313 170.933594 L 276.484375 178.109375 L 276.484375 170.933594 L 288.289063 170.933594 Z M 255.554688 191.398438 L 243.75 191.398438 L 243.75 170.933594 L 255.554688 170.933594 Z M 348.128906 165.152344 L 294.261719 165.152344 L 294.261719 153.390625 L 339.675781 153.390625 C 341.730469 153.390625 343.566406 153.8125 345.175781 154.65625 C 347.144531 155.71875 348.128906 157.203125 348.128906 159.105469 Z M 348.128906 185.550781 C 348.128906 188.386719 345.644531 190.289063 340.679688 191.265625 C 340.1875 191.355469 339.851563 191.398438 339.675781 191.398438 L 294.261719 191.398438 L 294.261719 170.933594 L 306.066406 170.933594 L 306.066406 182.628906 L 332.765625 182.628906 C 333.523438 182.628906 334.308594 182.308594 335.113281 181.664063 C 335.917969 181.023438 336.320313 180.347656 336.320313 179.636719 L 336.320313 170.933594 L 348.128906 170.933594 Z M 389.515625 162.230469 L 365.902344 162.230469 L 365.902344 165.152344 L 354.097656 165.152344 L 354.097656 153.390625 L 389.515625 153.390625 Z M 390.1875 191.398438 L 354.097656 191.398438 L 354.097656 170.933594 L 380.660156 170.933594 L 380.660156 179.703125 L 365.902344 179.703125 L 365.902344 182.628906 L 390.1875 182.628906 Z M 442.710938 165.152344 L 430.902344 165.152344 C 430.859375 163.203125 430.054688 162.230469 428.488281 162.230469 L 407.289063 162.230469 L 407.289063 165.152344 L 395.484375 165.152344 L 395.484375 153.390625 L 434.257813 153.390625 C 436.359375 153.390625 438.191406 153.8125 439.757813 154.65625 C 441.726563 155.71875 442.710938 157.203125 442.710938 159.105469 Z M 442.710938 191.398438 L 429.695313 191.398438 L 421.242188 179.703125 L 407.289063 179.703125 L 407.289063 191.398438 L 395.484375 191.398438 L 395.484375 170.933594 L 442.710938 170.933594 L 442.710938 173.855469 C 442.710938 176.738281 440.25 178.640625 435.332031 179.570313 C 435.0625 179.617188 434.703125 179.660156 434.257813 179.703125 L 442.710938 191.398438 "/>
<path style="fill:none;stroke-width:2.16;stroke-linecap:butt;stroke-linejoin:miter;stroke:rgb(86.698914%,87.5%,88.198853%);stroke-opacity:1;stroke-miterlimit:2.6131;" d="M 1603.007813 1608.476563 L 1484.960938 1608.476563 L 1484.960938 1726.09375 L 1603.007813 1726.09375 Z M 1845.859375 1346.015625 L 1484.960938 1346.015625 L 1484.960938 1550.664063 L 1603.007813 1550.664063 L 1603.007813 1433.710938 L 1845.859375 1433.710938 Z M 2379.140625 1346.015625 L 2259.726563 1346.015625 L 2202.03125 1462.96875 L 2081.289063 1462.96875 L 2023.59375 1346.015625 L 1905.546875 1346.015625 L 2006.835938 1550.664063 L 2277.1875 1550.664063 Z M 2187.304688 1726.09375 L 2247.65625 1608.476563 L 2035.664063 1608.476563 L 2096.054688 1726.09375 Z M 2882.890625 1608.476563 L 2764.84375 1608.476563 L 2764.84375 1726.09375 L 2882.890625 1726.09375 Z M 2678.984375 1608.476563 L 2437.5 1608.476563 L 2437.5 1726.09375 L 2607.226563 1726.09375 Z M 2882.890625 1346.015625 L 2692.382813 1346.015625 L 2575 1550.664063 L 2713.203125 1550.664063 L 2764.84375 1478.90625 L 2764.84375 1550.664063 L 2882.890625 1550.664063 Z M 2555.546875 1346.015625 L 2437.5 1346.015625 L 2437.5 1550.664063 L 2555.546875 1550.664063 Z M 3481.289063 1608.476563 L 2942.617188 1608.476563 L 2942.617188 1726.09375 L 3396.757813 1726.09375 C 3417.304688 1726.09375 3435.664063 1721.875 3451.757813 1713.4375 C 3471.445313 1702.8125 3481.289063 1687.96875 3481.289063 1668.945313 Z M 3481.289063 1404.492188 C 3481.289063 1376.132813 3456.445313 1357.109375 3406.796875 1347.34375 C 3401.875 1346.445313 3398.515625 1346.015625 3396.757813 1346.015625 L 2942.617188 1346.015625 L 2942.617188 1550.664063 L 3060.664063 1550.664063 L 3060.664063 1433.710938 L 3327.65625 1433.710938 C 3335.234375 1433.710938 3343.085938 1436.914063 3351.132813 1443.359375 C 3359.179688 1449.765625 3363.203125 1456.523438 3363.203125 1463.632813 L 3363.203125 1550.664063 L 3481.289063 1550.664063 Z M 3895.15625 1637.695313 L 3659.023438 1637.695313 L 3659.023438 1608.476563 L 3540.976563 1608.476563 L 3540.976563 1726.09375 L 3895.15625 1726.09375 Z M 3901.875 1346.015625 L 3540.976563 1346.015625 L 3540.976563 1550.664063 L 3806.601563 1550.664063 L 3806.601563 1462.96875 L 3659.023438 1462.96875 L 3659.023438 1433.710938 L 3901.875 1433.710938 Z M 4427.109375 1608.476563 L 4309.023438 1608.476563 C 4308.59375 1627.96875 4300.546875 1637.695313 4284.882813 1637.695313 L 4072.890625 1637.695313 L 4072.890625 1608.476563 L 3954.84375 1608.476563 L 3954.84375 1726.09375 L 4342.578125 1726.09375 C 4363.59375 1726.09375 4381.914063 1721.875 4397.578125 1713.4375 C 4417.265625 1702.8125 4427.109375 1687.96875 4427.109375 1668.945313 Z M 4427.109375 1346.015625 L 4296.953125 1346.015625 L 4212.421875 1462.96875 L 4072.890625 1462.96875 L 4072.890625 1346.015625 L 3954.84375 1346.015625 L 3954.84375 1550.664063 L 4427.109375 1550.664063 L 4427.109375 1521.445313 C 4427.109375 1492.617188 4402.5 1473.59375 4353.320313 1464.296875 C 4350.625 1463.828125 4347.03125 1463.398438 4342.578125 1462.96875 Z M 4427.109375 1346.015625 " transform="matrix(0.1,0,0,-0.1,0,326)"/>
</g>
</svg>
