<?xml version="1.0" encoding="utf-8"?>
<!-- Generator: Adobe Illustrator 19.0.0, SVG Export Plug-In . SVG Version: 6.00 Build 0)  -->
<svg version="1.1" id="layer" xmlns="http://www.w3.org/2000/svg" xmlns:xlink="http://www.w3.org/1999/xlink" x="0px" y="0px"
	 viewBox="-153 -46 652 652" style="enable-background:new -153 -46 652 652;" xml:space="preserve">
<style type="text/css">
	.st0{fill-rule:evenodd;clip-rule:evenodd;fill:#E30613;}
	.st1{fill-rule:evenodd;clip-rule:evenodd;fill:#FFFFFF;}
</style>
<path class="st0" d="M-39.1,523.2c2.2,0,3.2,0.1,3.9-1.6c0.9-2,7.8-22.9,7.8-22.9h15.8c6.9,0,16.3-0.1,16.3-0.1s1.2,2.2,4,11.1
	c2.8,8.9,3.6,13.7,7.8,13.7h14.6c2,0,2.6-0.8,2.6-2.4c0-1.6-1.6-5.3-1.6-5.3s-6.8-19.8-8.3-24.3c-1.5-4.5-6.9-19.7-10.1-28.6
	c-3.2-8.9-8.5-25.3-9.4-28.1c-0.9-2.8-1-4.1-4.1-4.4c-3.1-0.3-10.9-0.9-14.9-0.5c-0.6,0.1-1.9,0.1-2.5,2.1c-0.6,2-6.6,20.4-9.2,28
	c-2.5,7.6-10.1,29.5-11,32.5c-1,3-7.6,22.9-8.7,26.3c-1.1,3.4-1.2,4.4,0.9,4.4C-42.8,523.1-41.2,523.2-39.1,523.2 M-11.5,449.5
	c0,0,2.1,5.2,7.2,21.1c5.1,15.9,5.7,18.2,5.7,18.2s-4.6,0-12.5,0c-7.9,0-13.1-0.2-13.1-0.2s1.2-4,6.1-19.3
	C-13.1,454.1-11.5,449.5-11.5,449.5 M190.3,523.2c2.2,0,3.2,0.1,3.9-1.6c0.9-2,7.8-22.9,7.8-22.9h15.8c6.9,0,16.3-0.1,16.3-0.1
	s1.2,2.2,4,11.1c2.8,8.9,3.7,13.7,7.8,13.7h14.6c2,0,2.6-0.8,2.6-2.4c0-1.6-1.6-5.3-1.6-5.3s-6.8-19.8-8.3-24.3
	c-1.5-4.5-6.9-19.7-10.1-28.6c-3.2-8.9-8.5-25.3-9.4-28.1c-0.9-2.8-1-4.1-4.1-4.4c-3.1-0.3-10.9-0.9-14.9-0.5
	c-0.6,0.1-1.9,0.1-2.5,2.1c-0.6,2-6.6,20.4-9.2,28c-2.5,7.6-10.1,29.5-11,32.5c-1,3-7.6,22.9-8.7,26.3c-1.1,3.4-1.2,4.4,0.9,4.4
	C186.6,523.1,188.2,523.2,190.3,523.2 M217.9,449.5c0,0,2.1,5.2,7.2,21.1c5.1,15.9,5.7,18.2,5.7,18.2s-4.6,0-12.5,0
	c-7.9,0-13.1-0.2-13.1-0.2s1.2-4,6.1-19.3C216.3,454.1,217.9,449.5,217.9,449.5 M49.1,435.4c0-3.9,1-5.5,4.5-5.5s7,0.1,9.5,0.1
	c2.5,0,7-0.1,7,2.5c0,2.6,0.4,35.7,0.4,42.5c0,6.8,0.2,38,0.2,42.3c0,4.3-0.5,6.2-3.8,6.2c-3.3,0-8.4,0.2-11.8,0.2
	c-3.4,0-5.6-0.4-5.6-5.2c0-4.8-0.2-46.9-0.2-54.4C49.4,456.6,49.1,439.3,49.1,435.4 M132.2,479.9c-4.3,0-14.3,0.1-14.3,0.1
	c0,11.2,0.2,33.8,0.2,37.4c0,4.3-0.4,6.2-3.6,6.2s-8,0.2-11.2,0.2c-3.2,0-5.3-0.4-5.3-5.2c0-4.8-0.2-46.9-0.2-54.4
	c0-7.5-0.2-24.8-0.2-28.7c0-3.9,0.9-5.5,4.3-5.5c3.3,0,6.7,0.1,9.1,0.1c2.4,0,6.7-0.1,6.7,2.5c0,2.2,0.3,25.5,0.4,37.1
	c0,0,4.7,0.1,14.4,0.1c9.8,0,16.3-0.1,16.3-0.1c0-11.6,0.3-34.9,0.3-37.1c0-2.6,4.3-2.5,6.7-2.5c2.4,0,5.7-0.1,9.1-0.1
	s4.3,1.6,4.3,5.5c0,3.9-0.3,21.2-0.3,28.7c0,7.5-0.2,49.6-0.2,54.4c0,4.8-2.1,5.1-5.3,5.2c-3.2,0-8-0.2-11.2-0.2
	c-3.2,0-3.6-1.9-3.6-6.2c0-3.6,0.1-26.2,0.2-37.4C148.5,479.9,136.6,479.9,132.2,479.9 M282.7,519.8c-0.2-2.9-0.2-8.3-0.2-10.5
	c0-2.2-0.3-19.8-0.3-25.2c0-5.3,0.2-18.7,0.2-23.7c0-5-0.3-18.1-0.3-18.7c0-0.6-0.7-0.5-1.3-0.5c-0.6,0-1.3,0-3.2,0
	c-3.7-0.1-17.6-0.1-19.4-0.1c-1.8,0-2.1-2.1-2.1-5.4c0-3.3,0.7-4.9,2-4.9c1.4,0,19.2-0.3,22-0.3c2.8,0,17.5,0,21.3,0
	c3.8,0.1,21.7,0.4,24.3,0.6c2.6,0.2,2.7,1.3,2.7,2.8c0,1.6-0.3,4.7-0.5,6.2c-0.2,1.5-1.3,1.3-2.3,1.3h-6.4c-3.9,0-14.2-0.2-15.2-0.2
	c-1,0-1.3,0.3-1.3,1.2v9.5v21.6c0,1.6,0.1,19.9,0.1,21.6c0,1.7,0.1,19.7,0.1,25c0,5.3-4.9,4.6-8.6,4.4c-3.7-0.2-9-0.7-10.3-1
	C282.7,523.4,282.8,522.8,282.7,519.8 M358.6,525.7c-8.7,0-20.4-3.2-22.7-3.9c-2.3-0.7-2.4-2.3-2.4-3.5v-3.8c0-1.9,0.2-4.1,1.4-4.1
	c3.7,0,7.9,5.9,25.3,5.9c9.9,0,11.5-5.7,11.5-9.3c0-19.9-38.8-24-38.8-52.1c0-20.6,15.4-24.3,27.7-24.3c9.9,0,17.3,2.3,19.8,3.6
	c2.5,1.2,2.9,2.1,2.9,3.4v6.9c0,1-0.6,1.7-1.4,1.7c-2.6,0-6.4-6.4-20.3-6.4c-9.2,0-13.1,4.6-13.1,10c0,16,40.1,23.1,40.1,51.1
	C388.6,520.6,371.8,525.7,358.6,525.7 M404,435.2c0-1.8,0.3-3.2,3.1-3.2c2.7,0,4.6-0.2,7-0.2c2.4,0,4.5,0,6.4,0.1
	c2,0,3.9,0.3,3.9,7.7s-0.2,26.5-0.2,30c0,3.5,0,15.2,0,20.4c0,9.5-1.6,27.1,17.8,27.1c3.7,0,17.7,0,17.7-18.7c0-7.3-0.3-35-0.4-46.3
	c0-6-0.2-15.3-0.2-17.1c0-1.8,0.4-2.7,1.7-2.7c1.3,0,4.5,0.1,6.6,0.1c2.1,0,3.4,0,3.4,1.5c0,1.4,0.4,11,0.4,37.3v28
	c0,5.8,0.6,27.1-28.1,27.1c-28.7,0-38.5-15.3-38.5-30.7C404.3,480.1,404,437.1,404,435.2 M-133.7,478.5c0,15.8,0.4,38.6,0.4,40.8
	c0,2.2,0.1,3.3,5.5,3.6c5.4,0.3,26.3,0.1,32.5,0.1c25.5,0,38.4-18.3,38.4-44.6c0-43.5-24.3-49-41.6-49h-31.2c-2.6,0-4.2,0.1-4.2,3.1
	C-133.8,435.3-133.7,462.7-133.7,478.5 M-101.4,513.3c11.6,0,23.7-1.9,23.7-37.6c0-35.7-13.5-36-24.8-36h-7.3
	c-1.2,0-3.2-0.2-3.2,2.1V513C-113,513-106.7,513.3-101.4,513.3 M-133.8,26.3H471v359.1h-604.8V26.3z"/>
<path class="st1" d="M154.1,236.7L81,244.1L-49.7,113.4c0,0,85.4-5.3,240.7,8.7c155.3,14,241.3,37.8,241.3,62.8
	c0,66.5-420.4,131.5-420.4,131.5l37.6-58.8L-94.7,115l34.2-1.6l138,138c0,0,338.7-29.9,338.7-65.7c0-21.5-151.3-40.5-225.3-46.6
	c-66.3-5.5-139.5-5.1-139.5-5.1L154.1,236.7z"/>
</svg>
