<?xml version="1.0" encoding="UTF-8"?>
<svg xmlns="http://www.w3.org/2000/svg" xmlns:xlink="http://www.w3.org/1999/xlink" width="1036.98pt" height="540.1pt" viewBox="0 0 1036.98 540.1" version="1.1">
<defs>
<clipPath id="clip1">
  <path d="M 701 418 L 884 418 L 884 540.101563 L 701 540.101563 Z M 701 418 "/>
</clipPath>
<clipPath id="clip2">
  <path d="M 891 420 L 1036.980469 420 L 1036.980469 540 L 891 540 Z M 891 420 "/>
</clipPath>
<clipPath id="clip3">
  <path d="M 330 419 L 529 419 L 529 540.101563 L 330 540.101563 Z M 330 419 "/>
</clipPath>
</defs>
<g id="surface1">
<path style=" stroke:none;fill-rule:nonzero;fill:rgb(88.999939%,3.09906%,7.499695%);fill-opacity:1;" d="M 458.085938 154.257813 C 462.308594 153.355469 466.226563 151.027344 472.066406 151.15625 C 464.015625 157.453125 456.933594 162.9375 449.910156 168.5 C 441.085938 175.492188 440.683594 176.980469 444.414063 187.230469 C 450.90625 205.085938 460.484375 221.164063 472.328125 235.957031 C 486.410156 253.539063 502.523438 269.300781 517.417969 286.152344 C 518.261719 287.109375 519.648438 287.679688 519.820313 289.652344 C 514.433594 291.132813 510.605469 285.296875 505.265625 286.234375 C 515.578125 299.992188 522.144531 316.425781 538.425781 326.835938 C 536.761719 322.148438 535.488281 318.59375 534.234375 315.027344 C 533.199219 312.089844 532.179688 309.140625 531.164063 306.195313 C 530.828125 305.226563 530.507813 303.941406 531.328125 303.394531 C 532.554688 302.574219 533.304688 303.796875 534.125 304.65625 C 552.476563 323.910156 574.105469 339.035156 596.050781 353.765625 C 605.773438 360.292969 615.878906 366.074219 626.730469 370.484375 C 628.191406 371.078125 629.835938 371.230469 631.421875 371.59375 C 630.988281 373.789063 629.335938 373.089844 628.21875 373.054688 C 620.585938 372.824219 612.964844 373.0625 605.300781 372.441406 C 597.558594 371.816406 589.578125 372.15625 581.902344 373.363281 C 577.542969 374.046875 572.964844 375.882813 569.300781 379.164063 C 562.328125 385.398438 562.144531 384.746094 553.621094 381.207031 C 540.992188 375.964844 527.785156 371.765625 513.921875 373.128906 C 504.832031 374.019531 497.503906 371.28125 490.507813 366.261719 C 487.238281 363.914063 483.554688 362.453125 479.710938 361.550781 C 476.898438 360.894531 474.070313 360.703125 475.773438 365.339844 C 476.546875 367.457031 476.585938 369.859375 476.867188 372.140625 C 477.078125 373.84375 477.007813 375.695313 475.390625 376.628906 C 473.503906 377.714844 472.351563 375.984375 471.195313 374.878906 C 461.003906 365.121094 451.308594 354.777344 440.539063 345.707031 C 427.886719 335.050781 415.664063 323.984375 404.738281 311.632813 C 396.078125 301.839844 389.980469 290.191406 383.953125 278.609375 C 381.910156 274.683594 379.820313 270.78125 377.710938 266.886719 C 376.574219 264.789063 375.347656 264.507813 374.597656 267.089844 C 373.179688 271.972656 370.269531 276.296875 369.753906 281.558594 C 369.460938 284.5625 368.019531 287.335938 365.972656 289.886719 C 353.421875 305.550781 345.269531 323.675781 336.769531 341.691406 C 328.1875 359.886719 315.765625 374.898438 296.632813 383.171875 C 295.15625 383.808594 293.636719 384.808594 292.652344 386.050781 C 286.722656 393.507813 278.507813 395.988281 269.566406 396.839844 C 260.898438 397.660156 252.300781 396.46875 243.695313 395.675781 C 240.738281 395.398438 237.75 395.226563 234.84375 394.65625 C 225.40625 392.796875 218.175781 387.925781 212.382813 379.972656 C 197.367188 359.355469 183.203125 338.292969 172.804688 314.890625 C 171.777344 312.582031 169.195313 310.878906 170.25 307.503906 C 173.09375 308.808594 176.1875 309.621094 178.519531 311.425781 C 183.449219 315.230469 182.976563 311.644531 182.824219 307.453125 C 188.082031 311.109375 192.773438 314.230469 197.285156 317.59375 C 198.546875 318.53125 199.664063 319.792969 201.148438 318.902344 C 202.4375 318.128906 201.703125 316.492188 201.691406 315.214844 C 201.660156 312.550781 199.160156 308.648438 201.761719 307.574219 C 204.335938 306.515625 205.300781 311.125 207.253906 312.988281 C 209.964844 315.589844 212.332031 318.558594 214.734375 321.464844 C 220.050781 327.90625 225.386719 328.074219 232.9375 324.308594 C 241.726563 319.921875 247.445313 312.414063 250.796875 303.285156 C 254.417969 293.425781 256.632813 283.03125 262.664063 274.132813 C 264.53125 271.371094 266.40625 268.605469 268.867188 266.421875 C 270.871094 264.648438 271.800781 262.386719 272.503906 260.085938 C 273.101563 258.144531 273.8125 255.757813 271.921875 254.011719 C 269.996094 252.238281 268.171875 254.007813 266.371094 254.5625 C 257.089844 257.429688 247.492188 257.785156 237.90625 257.988281 C 234.960938 258.050781 232.8125 256.230469 231.378906 253.433594 C 225.226563 241.445313 215.070313 232.75 206.101563 223.089844 C 204.097656 220.933594 201.398438 220.082031 198.449219 220.191406 C 196.789063 220.253906 195.128906 220.351563 193.472656 220.507813 C 180.160156 221.738281 178.195313 219.355469 178.621094 206.179688 C 178.894531 197.8125 180.277344 189.835938 182.863281 181.945313 C 184.628906 176.566406 187.410156 171.769531 190.570313 167.144531 C 191.949219 165.121094 194.070313 163.835938 196.261719 163.347656 C 210.480469 160.179688 224.429688 156 238.011719 150.875 C 246.707031 147.59375 254.988281 142.972656 262.988281 138.171875 C 267.296875 135.585938 271.414063 133.441406 276.375 134.101563 C 285.140625 135.269531 292.988281 132.644531 300.699219 129.007813 C 305.605469 126.691406 306.914063 122.511719 306.882813 117.585938 C 306.820313 107.109375 307.28125 96.625 305.84375 86.183594 C 305.039063 80.351563 306.46875 75.699219 312.492188 72.859375 C 318.046875 70.238281 320.902344 65.933594 320.03125 59.039063 C 318.613281 47.839844 325.414063 39.636719 332.128906 31.945313 C 338.523438 24.617188 343.226563 16.546875 346.195313 7.367188 C 348.726563 -0.464844 349.902344 -0.804688 358.042969 0.699219 C 367.910156 2.519531 377.175781 6.996094 387.414063 7.128906 C 391.277344 7.179688 395.109375 6.984375 398.628906 5.421875 C 405.203125 2.503906 409.789063 5.34375 413.679688 10.277344 C 420.382813 18.773438 427.519531 26.699219 438.390625 29.898438 C 441.40625 30.785156 441.347656 33.019531 441.257813 35.433594 C 440.902344 45.160156 437.910156 54.21875 434.289063 63.117188 C 434.042969 63.726563 433.558594 64.257813 433.402344 64.878906 C 432.925781 66.769531 430.984375 68.984375 432.136719 70.429688 C 433.761719 72.46875 436.160156 70.324219 438.050781 69.742188 C 455.90625 64.246094 473.730469 58.636719 491.523438 52.945313 C 517.605469 44.601563 543.632813 36.082031 569.730469 27.785156 C 586.867188 22.339844 604.125 17.261719 621.085938 11.269531 C 621.804688 11.015625 622.6875 11.234375 624.019531 11.234375 C 622.414063 14.238281 619.65625 15.125 617.492188 16.476563 C 605.105469 24.222656 592.582031 31.75 580.128906 39.390625 C 579.59375 39.714844 579.285156 40.402344 578.871094 40.925781 C 578.242188 42.097656 578.351563 42.675781 579.847656 42.140625 C 586.023438 40.679688 592.195313 39.21875 598.367188 37.757813 C 598.527344 38.136719 598.691406 38.515625 598.851563 38.894531 C 582.347656 48.308594 565.84375 57.71875 549.339844 67.128906 C 556.171875 67.980469 562.511719 66.113281 569.230469 65.589844 C 553.832031 77.011719 537.570313 86.976563 521.570313 97.589844 C 529.445313 97.4375 536.828125 94.914063 545.617188 92.628906 C 540.921875 98.039063 535.617188 100.210938 531.058594 103.289063 C 508.296875 118.65625 485.367188 133.777344 462.496094 148.976563 C 460.332031 150.417969 458.140625 151.820313 455.960938 153.242188 C 455.746094 155.515625 457.199219 154.292969 458.085938 154.257813 "/>
<g clip-path="url(#clip1)" clip-rule="nonzero">
<path style=" stroke:none;fill-rule:nonzero;fill:rgb(19.198608%,15.299988%,51.399231%);fill-opacity:1;" d="M 849.308594 421.101563 C 859.136719 421.09375 868.972656 421.253906 878.796875 421.019531 C 882.832031 420.921875 884.164063 422.4375 883.933594 426.277344 C 883.679688 430.59375 883.769531 434.929688 883.6875 439.257813 C 883.625 442.464844 882.164063 444.078125 878.753906 444.074219 C 875.269531 444.0625 871.785156 444.570313 868.292969 444.664063 C 864.640625 444.765625 863.738281 446.527344 863.765625 450.046875 C 863.917969 471.871094 863.828125 493.695313 863.820313 515.519531 C 863.820313 522.015625 863.703125 528.515625 863.875 535.007813 C 863.953125 538.097656 863.203125 539.511719 859.746094 539.523438 C 846.429688 539.550781 833.113281 539.871094 819.800781 540.042969 C 815.46875 540.101563 812.671875 537.371094 810.539063 534.152344 C 797.304688 514.195313 780.164063 497.394531 765.671875 478.457031 C 763.050781 475.039063 760.273438 471.746094 757.554688 468.402344 C 756.945313 467.652344 756.4375 466.6875 755.152344 467.160156 C 754.152344 467.523438 754.097656 468.285156 754.179688 469.15625 C 755.414063 482.269531 754.546875 495.417969 754.609375 508.542969 C 754.628906 512.5 756.019531 513.230469 759.523438 513.21875 C 769.0625 513.183594 769.0625 513.316406 769.054688 523.109375 C 769.050781 526.773438 768.679688 530.488281 769.144531 534.089844 C 769.75 538.800781 767.449219 539.75 763.515625 539.726563 C 744.703125 539.601563 725.882813 539.484375 707.070313 539.550781 C 703.007813 539.566406 701.546875 538.269531 701.820313 534.085938 C 702.195313 528.445313 702.128906 522.753906 701.84375 517.101563 C 701.640625 513.015625 703.304688 511.796875 707.128906 512.046875 C 710.941406 512.292969 714.789063 511.996094 718.617188 512.152344 C 721.484375 512.273438 722.882813 511.453125 722.871094 508.257813 C 722.777344 488.101563 722.792969 467.945313 722.847656 447.785156 C 722.855469 444.960938 721.714844 443.917969 718.945313 444.0625 C 715.789063 444.222656 712.597656 443.890625 709.453125 444.171875 C 705.796875 444.5 704.15625 442.976563 704.117188 439.453125 C 704.058594 433.789063 704.046875 428.125 703.976563 422.464844 C 703.929688 418.886719 706.445313 419.132813 708.816406 419.132813 C 725.8125 419.132813 742.804688 419.027344 759.796875 419.222656 C 763.902344 419.269531 767.929688 418.105469 772.113281 418.976563 C 774.3125 419.433594 775.621094 420.414063 776.867188 422.066406 C 794.847656 446 812.871094 469.90625 830.847656 493.835938 C 831.660156 494.914063 832.328125 496.457031 833.773438 496.175781 C 835.753906 495.792969 834.589844 493.972656 834.605469 492.855469 C 834.765625 477.882813 834.777344 462.90625 834.964844 447.933594 C 835.007813 444.558594 833.847656 442.929688 830.34375 443.140625 C 826.878906 443.34375 823.398438 443.367188 819.929688 443.5 C 816.234375 443.644531 814.445313 442.289063 814.8125 438.214844 C 815.171875 434.25 815.121094 430.214844 814.847656 426.234375 C 814.585938 422.410156 815.644531 420.882813 819.824219 421.011719 C 829.644531 421.316406 839.480469 421.109375 849.308594 421.101563 "/>
</g>
<g clip-path="url(#clip2)" clip-rule="nonzero">
<path style=" stroke:none;fill-rule:nonzero;fill:rgb(19.198608%,15.299988%,51.399231%);fill-opacity:1;" d="M 913.492188 539 C 897.8125 539.492188 892.4375 527.410156 892.164063 515.660156 C 891.59375 491.054688 892.136719 466.414063 892.605469 441.792969 C 892.820313 430.410156 901.828125 422.996094 915.632813 421.066406 C 924.925781 419.769531 934.199219 420.238281 943.492188 420.222656 C 972.972656 420.183594 1002.460938 420.230469 1031.929688 420.070313 C 1035.648438 420.050781 1037.089844 421.1875 1036.929688 424.886719 C 1036.738281 429.210938 1036.640625 433.5625 1036.941406 437.871094 C 1037.28125 442.644531 1035.5 444.234375 1030.679688 444.195313 C 1006.53125 443.992188 982.371094 444.097656 958.222656 444.101563 C 954.558594 444.101563 950.886719 444.019531 947.230469 444.171875 C 940.914063 444.441406 936.902344 448.683594 936.890625 455.0625 C 936.863281 471.550781 936.855469 488.039063 936.902344 504.53125 C 936.921875 511.328125 939.433594 514.15625 946.015625 514.265625 C 960.496094 514.503906 974.976563 514.550781 989.457031 514.574219 C 991.613281 514.578125 993.855469 514.378906 993.488281 510.996094 C 992.808594 504.707031 992.824219 498.410156 993.8125 492.121094 C 994.484375 487.851563 993.097656 485.804688 988.109375 486.035156 C 978.804688 486.464844 969.453125 485.890625 960.140625 486.273438 C 956.113281 486.4375 955.125 484.347656 955.03125 481.398438 C 954.882813 476.59375 956.039063 471.847656 955.988281 466.992188 C 955.957031 464.226563 958.714844 465.1875 960.339844 465.183594 C 981.992188 465.132813 1003.648438 465.15625 1025.300781 465.160156 C 1035.871094 465.164063 1035.871094 465.164063 1035.859375 475.667969 C 1035.851563 495.15625 1035.75 514.644531 1035.921875 534.132813 C 1035.949219 537.667969 1034.699219 539.035156 1031.410156 539.011719 C 1024.898438 537.96875 1018.320313 539.027344 1011.800781 538.425781 C 1006.179688 537.707031 1000.53125 538.136719 994.902344 538.117188 C 974.164063 538.054688 953.425781 538.09375 932.6875 538.09375 C 929.128906 538.238281 925.542969 537.765625 921.996094 538.417969 C 919.1875 538.960938 916.277344 538.058594 913.492188 539 "/>
</g>
<g clip-path="url(#clip3)" clip-rule="nonzero">
<path style=" stroke:none;fill-rule:nonzero;fill:rgb(19.198608%,15.299988%,51.399231%);fill-opacity:1;" d="M 480.117188 419.859375 C 494.449219 419.859375 508.78125 419.941406 523.109375 419.800781 C 526.609375 419.765625 528.289063 420.496094 527.945313 424.488281 C 527.566406 428.953125 527.621094 433.5 527.96875 437.972656 C 528.328125 442.554688 526.320313 443.816406 522.140625 443.566406 C 517.324219 443.277344 512.476563 443.503906 507.65625 443.246094 C 504.976563 443.105469 502.628906 443.730469 500.773438 445.507813 C 483.605469 461.957031 466.480469 478.453125 449.378906 494.964844 C 447.039063 497.222656 445.730469 509.546875 447.429688 512.125 C 448.746094 514.117188 450.894531 513.734375 452.84375 514.011719 C 456.40625 514.511719 460.945313 512.175781 463.339844 515.003906 C 465.589844 517.664063 463.820313 522.0625 463.773438 525.679688 C 463.734375 528.664063 464.71875 531.46875 464.371094 534.566406 C 463.929688 538.476563 462.371094 539.53125 458.65625 539.515625 C 441.164063 539.425781 423.664063 539.542969 406.171875 539.652344 C 401.34375 539.679688 396.519531 539.949219 391.695313 540.09375 C 387.578125 540.214844 385.566406 538.511719 385.855469 534.09375 C 386.15625 529.445313 386.140625 524.761719 385.976563 520.105469 C 385.847656 516.546875 386.980469 514.777344 390.800781 515.105469 C 393.285156 515.324219 395.8125 514.988281 398.292969 515.191406 C 401.867188 515.488281 402.570313 513.761719 403.003906 510.511719 C 404.144531 501.988281 400.769531 495.808594 395.046875 489.742188 C 381.9375 475.859375 369.359375 461.472656 356.714844 447.15625 C 354.742188 444.929688 352.691406 443.941406 349.847656 444.015625 C 345.019531 444.140625 340.179688 444.046875 335.355469 444.261719 C 332.429688 444.390625 331.039063 443.28125 330.910156 440.351563 C 330.65625 434.507813 331.1875 428.71875 331.84375 422.925781 C 332.222656 419.597656 334.78125 420.222656 336.773438 420.214844 C 348.769531 420.152344 360.769531 420.210938 372.765625 420.226563 C 381.433594 420.242188 390.097656 420.363281 398.757813 420.21875 C 401.851563 420.164063 402.933594 421.320313 402.859375 424.296875 C 402.742188 429.125 402.585938 433.976563 402.929688 438.785156 C 403.226563 442.945313 401.828125 444.6875 397.628906 444.207031 C 396.414063 444.070313 394.785156 443.484375 394.074219 445.078125 C 393.359375 446.671875 394.976563 447.40625 395.773438 448.355469 C 401.734375 455.457031 407.769531 462.496094 413.703125 469.617188 C 415.578125 471.863281 417.3125 473 419.820313 470.4375 C 427.496094 462.601563 435.214844 454.808594 442.96875 447.050781 C 443.808594 446.214844 444.03125 445.367188 443.71875 444.394531 C 443.324219 443.167969 442.195313 443.351563 441.203125 443.378906 C 440.371094 443.402344 439.539063 443.402344 438.710938 443.46875 C 434.722656 443.796875 432.386719 442.785156 432.8125 437.964844 C 433.226563 433.34375 432.984375 428.640625 432.746094 423.984375 C 432.574219 420.628906 433.933594 419.765625 437.128906 419.800781 C 451.457031 419.945313 465.789063 419.863281 480.117188 419.859375 "/>
</g>
<path style=" stroke:none;fill-rule:nonzero;fill:rgb(88.999939%,3.09906%,7.499695%);fill-opacity:1;" d="M 787.429688 235.902344 C 785.742188 247.570313 773.246094 258.113281 760.855469 258.101563 C 759.726563 257.878906 758.007813 258.84375 757.296875 257.480469 C 756.488281 255.921875 758.46875 255.425781 759.210938 254.460938 C 764.144531 248.039063 769.015625 241.589844 769.882813 233.140625 C 770.152344 230.519531 771.804688 229.460938 774.191406 229.160156 C 778.566406 228.613281 782.183594 230.8125 785.878906 232.550781 C 787 233.078125 787.660156 234.285156 787.429688 235.902344 M 746.3125 172.972656 C 744.886719 174.84375 743.25 174.914063 741.976563 172.714844 C 732.667969 156.632813 737.074219 139.195313 751.78125 128.078125 C 754.652344 125.90625 754.71875 128.800781 754.835938 130.433594 C 755.203125 135.546875 756.578125 140.578125 755.894531 145.058594 C 757.164063 156.382813 752.425781 164.9375 746.3125 172.972656 M 854.554688 259.269531 C 847.636719 252.679688 839.917969 247.105469 832.339844 241.34375 C 823.949219 234.960938 823.9375 234.175781 831.773438 226.683594 C 832.613281 225.878906 833.539063 225.15625 834.347656 224.320313 C 837.90625 220.628906 841.808594 217.257813 844.15625 212.511719 C 846.816406 207.136719 845.507813 198.980469 841.316406 196.285156 C 835.292969 192.417969 829.222656 193.621094 824.742188 199.363281 C 820.628906 204.640625 815.46875 208.945313 809.121094 210.851563 C 803.71875 212.472656 798.421875 210.621094 793.832031 207.113281 C 789.804688 204.039063 785.886719 205.125 781.980469 207.625 C 779.078125 209.480469 776.109375 211.296875 772.980469 212.703125 C 771.488281 213.375 769.246094 214.023438 768.070313 211.921875 C 766.984375 209.976563 768.253906 208.203125 769.632813 207.179688 C 781.0625 198.675781 787.625 186.621094 793.574219 174.230469 C 800.132813 160.566406 807.75 148.171875 822.867188 142.371094 C 825.320313 141.425781 827.09375 139.089844 827.996094 136.128906 C 829.8125 130.179688 831.386719 124.144531 833.992188 118.425781 C 836.253906 113.464844 835.4375 112.503906 830.128906 113.121094 C 829.011719 113.253906 827.90625 113.660156 826.84375 114.070313 C 821.359375 116.171875 816.949219 119.863281 812.695313 123.769531 C 808.058594 128.027344 803.511719 132.386719 798.796875 136.558594 C 797.796875 137.441406 796.433594 138.769531 794.835938 137.703125 C 793.3125 136.679688 793.886719 135.015625 794.105469 133.570313 C 794.203125 132.941406 794.613281 132.359375 794.855469 131.746094 C 798.90625 121.394531 803.722656 111.261719 806.8125 100.628906 C 811.378906 84.910156 816.609375 69.59375 824.832031 55.378906 C 829.515625 47.277344 834.984375 39.703125 840.445313 31.566406 C 838.089844 30.890625 837.054688 32.316406 835.699219 32.660156 C 833.890625 33.121094 831.894531 35.601563 830.363281 33.65625 C 829.0625 32.003906 831.285156 30.023438 832.253906 28.457031 C 835.289063 23.5625 838.628906 18.855469 841.804688 14.050781 C 842.308594 13.289063 843.453125 12.355469 842.546875 11.515625 C 841.976563 10.980469 840.402344 10.800781 839.742188 11.210938 C 836.078125 13.46875 831.507813 13.632813 828.035156 15.96875 C 815.503906 24.402344 802.414063 31.691406 788.699219 38.089844 C 774.367188 44.769531 766.535156 58.875 755.6875 69.542969 C 748.3125 76.789063 742.550781 85.617188 734.035156 91.773438 C 732.675781 92.753906 731.28125 93.855469 731.9375 95.835938 C 732.542969 97.667969 734.226563 98.007813 735.855469 98.058594 C 737.832031 98.121094 739.796875 98.203125 741.789063 97.644531 C 745.433594 96.621094 749.140625 95.8125 752.855469 95.09375 C 756.390625 94.414063 757.894531 96.253906 757.429688 99.59375 C 756.792969 104.183594 755.871094 108.71875 753.804688 112.941406 C 751.417969 117.820313 749.894531 118.167969 745.808594 114.445313 C 742.628906 111.550781 739.855469 110.222656 735.328125 112.882813 C 729.320313 116.421875 724.648438 120.960938 720.742188 126.546875 C 720.097656 127.46875 719.347656 128.820313 718.140625 128.566406 C 716.832031 128.292969 717.097656 126.753906 716.8125 125.636719 C 716.003906 122.46875 715.921875 119.042969 714.019531 116.230469 C 712.617188 114.160156 712.929688 112.238281 713.949219 110.175781 C 716.058594 105.902344 714.828125 102.148438 711.699219 99.007813 C 709.667969 96.964844 708.859375 94.785156 708.8125 91.914063 C 708.667969 82.96875 702.722656 78.332031 694.949219 76.433594 C 692.785156 75.902344 690.945313 76.570313 689.589844 78.097656 C 688.335938 79.511719 689.097656 81.054688 689.6875 82.71875 C 691.105469 86.742188 693.085938 90.519531 693.996094 94.785156 C 696.074219 104.511719 694.269531 113.867188 692.324219 123.3125 C 691.164063 128.9375 689.386719 134.53125 690.171875 140.410156 C 691.609375 151.152344 696.886719 159.960938 704.074219 167.777344 C 709.652344 173.851563 714.597656 180.410156 719.226563 187.226563 C 721.351563 190.347656 721.097656 192.605469 717.324219 194.125 C 713.96875 195.476563 710.738281 197.144531 707.386719 198.515625 C 700.976563 201.144531 696.476563 205.257813 695.941406 212.621094 C 695.867188 213.621094 695.636719 214.503906 695.097656 215.417969 C 694.582031 216.285156 694.257813 217.515625 693.253906 217.546875 C 692.0625 217.585938 692.117188 216.234375 691.726563 215.335938 C 690.164063 211.789063 691.121094 208.09375 690.90625 204.480469 C 690.523438 198.070313 688.222656 195.605469 682.148438 194.789063 C 675.605469 193.910156 669.34375 195.402344 662.984375 196.464844 C 658.253906 197.257813 653.4375 197.632813 648.644531 197.941406 C 647.484375 198.015625 645.792969 197.414063 645.167969 196.539063 C 644.242188 195.25 646.078125 194.578125 646.832031 193.96875 C 653.972656 188.164063 655.976563 180.039063 656.628906 171.554688 C 657.050781 166.007813 659.78125 163.914063 664.875 162.859375 C 667.734375 162.265625 671.28125 162.921875 673.421875 159.730469 C 680.640625 148.964844 678.859375 131.960938 669.355469 123.113281 C 665.40625 119.4375 662.464844 115.085938 660.003906 110.363281 C 655.578125 101.875 651.390625 101.476563 644.710938 108.503906 C 639.023438 114.484375 634.242188 121.179688 629.089844 127.570313 C 619.316406 139.699219 606.65625 145.441406 591.324219 146.039063 C 586.175781 146.238281 581.441406 147.183594 577.226563 150.941406 C 571.25 156.273438 564.46875 160.179688 555.746094 159.238281 C 552.953125 158.941406 549.898438 159.8125 547.117188 160.996094 C 539.84375 164.09375 538.914063 167.839844 544.175781 173.652344 C 546.949219 176.71875 549.414063 179.898438 550.96875 183.816406 C 553.878906 191.152344 554.886719 198.753906 554.929688 206.570313 C 554.9375 208.117188 554.308594 209.765625 555.769531 211.238281 C 560.785156 216.304688 571.652344 217.023438 576.984375 212.269531 C 583.640625 206.339844 590.105469 200.199219 596.648438 194.144531 C 600.710938 190.386719 606.175781 190 609.589844 193.195313 C 610.679688 194.21875 611.566406 195.015625 609.675781 196.199219 C 602.378906 200.761719 602.101563 208.554688 601.058594 215.835938 C 600.578125 219.175781 602.128906 221.796875 605.824219 222.902344 C 612.863281 225.003906 619.972656 224.234375 627.050781 223.65625 C 634.015625 223.089844 640.984375 222.246094 647.824219 224.171875 C 651.789063 225.285156 653.054688 229.3125 649.992188 231.101563 C 644.984375 234.019531 641.894531 238.691406 637.839844 242.453125 C 632.992188 246.953125 627.195313 247.929688 623.355469 242.40625 C 621.175781 239.277344 619.554688 235.035156 614.414063 235.703125 C 609.0625 236.402344 609.753906 241.382813 608.105469 244.683594 C 607.625 245.648438 607.953125 247.160156 606.199219 247.058594 C 604.597656 246.964844 604.589844 245.421875 604.261719 244.503906 C 603.273438 241.730469 602.765625 238.777344 601.777344 236.003906 C 601.070313 234 600.144531 231.902344 597.335938 232.078125 C 594.609375 232.242188 594.410156 234.550781 593.96875 236.332031 C 592.539063 242.0625 591.375 247.855469 590.066406 253.617188 C 586.234375 270.476563 583.042969 287.375 585.871094 304.789063 C 587.765625 316.449219 591.710938 327.085938 600.476563 335.46875 C 601.304688 336.265625 601.832031 337.589844 603.226563 337.003906 C 604.398438 336.507813 603.878906 335.246094 603.855469 334.347656 C 603.726563 329.183594 604.679688 324.167969 605.808594 319.175781 C 606.136719 317.710938 605.167969 315.628906 607.628906 315.105469 C 609.683594 314.664063 610.617188 316.285156 611.691406 317.453125 C 613.136719 319.027344 614.636719 321.546875 616.488281 321.308594 C 618.941406 321 617.410156 317.503906 618.863281 315.898438 C 618.949219 315.800781 618.878906 315.570313 618.921875 315.410156 C 619.652344 312.40625 620.824219 309.269531 623.941406 308.527344 C 626.839844 307.839844 628.425781 310.660156 630.105469 312.738281 C 630.839844 313.648438 631.539063 315.378906 633.167969 314.664063 C 634.480469 314.089844 633.773438 312.589844 633.871094 311.503906 C 634.910156 300.007813 635.171875 288.460938 637.683594 277.078125 C 638.75 272.242188 640.445313 270.894531 645.269531 271.269531 C 655.367188 272.058594 664.527344 271.035156 671.652344 261.613281 C 677.460938 253.9375 683.234375 245.84375 691.164063 239.972656 C 693.378906 238.335938 696.28125 235.285156 698.972656 238.101563 C 701.152344 240.375 700.40625 243.96875 698.871094 246.914063 C 698.71875 247.210938 698.488281 247.460938 698.332031 247.753906 C 695.265625 253.609375 690.558594 258.050781 685.757813 262.421875 C 684.980469 263.128906 683.238281 263.328125 683.914063 264.859375 C 684.46875 266.097656 685.914063 265.808594 687.0625 265.769531 C 689.871094 265.664063 692.683594 265.589844 695.480469 265.367188 C 697.152344 265.234375 698.570313 265.4375 699.886719 266.898438 C 694.003906 270.695313 692.125 276.90625 689.3125 282.386719 C 688.105469 284.738281 684.585938 287.6875 686.4375 289.582031 C 688.308594 291.503906 691.828125 288.480469 694.703125 287.9375 C 697.296875 287.445313 700.414063 284.59375 702.269531 287.546875 C 703.546875 289.574219 700.761719 292.171875 699.277344 294.25 C 693.746094 301.988281 688.179688 309.703125 682.511719 317.589844 C 683.929688 318.34375 684.984375 318.183594 686.105469 317.796875 C 692.132813 315.714844 698.003906 313.402344 703.433594 309.910156 C 708.4375 306.6875 713.308594 302.957031 719.746094 302.785156 C 721.128906 302.75 722.765625 301.269531 723.804688 302.832031 C 724.699219 304.179688 723.417969 305.527344 722.738281 306.878906 C 718.726563 314.851563 713.535156 322.03125 708.402344 329.289063 C 701.394531 339.1875 695.082031 349.578125 687.972656 359.398438 C 681.464844 368.382813 675.128906 377.351563 672.480469 388.339844 C 671.71875 391.519531 670.324219 395.769531 673.1875 397.496094 C 675.644531 398.980469 678.230469 395.464844 680.242188 393.273438 C 687.4375 385.449219 695.417969 378.527344 704.699219 373.300781 C 710.21875 370.1875 715.78125 367.296875 718.199219 360.914063 C 722.175781 350.425781 727.644531 340.703125 733.128906 330.960938 C 744.355469 311.011719 759.835938 295.601563 780.863281 286.339844 C 792.921875 281.023438 802.445313 272.902344 810.429688 262.699219 C 811.550781 261.269531 812.539063 258.964844 814.371094 259.449219 C 816.429688 259.988281 817.46875 262.378906 817.808594 264.507813 C 818.199219 266.929688 818.210938 269.230469 816.195313 271.429688 C 812.96875 274.945313 809.96875 278.730469 807.808594 283.070313 C 801.238281 296.253906 792.113281 307.640625 782.644531 318.785156 C 781.929688 319.625 781.191406 320.996094 779.964844 320.710938 C 778.519531 320.371094 779.050781 318.8125 778.878906 317.714844 C 778.238281 313.644531 777.46875 309.59375 776.933594 305.507813 C 776.730469 303.945313 776.71875 302.359375 774.808594 302.152344 C 773.046875 301.960938 772.328125 303.304688 771.664063 304.769531 C 769.117188 310.371094 765.480469 315.160156 761.214844 319.628906 C 756.835938 324.214844 752.675781 329.085938 750.453125 335.257813 C 748.011719 342.050781 749.394531 344.746094 756.078125 347.21875 C 762.203125 349.488281 768.136719 351.992188 772.691406 357.277344 C 777.378906 362.71875 781.886719 362.300781 787.195313 357.367188 C 793.664063 351.355469 798.074219 343.578125 804.714844 337.679688 C 813.597656 329.785156 820.472656 319.519531 831.171875 313.820313 C 837.988281 310.191406 842.800781 306.980469 843.84375 297.855469 C 844.996094 287.75 850.230469 278.195313 856.089844 269.574219 C 859.039063 265.238281 857.800781 262.363281 854.554688 259.269531 "/>
<path style=" stroke:none;fill-rule:nonzero;fill:rgb(19.198608%,15.299988%,51.399231%);fill-opacity:1;" d="M 113.914063 498.570313 C 113.871094 508.542969 109.0625 513.632813 99.070313 513.839844 C 88.085938 514.066406 77.09375 513.785156 66.105469 513.933594 C 62.683594 513.980469 61.835938 512.492188 61.863281 509.421875 C 61.964844 499.265625 61.902344 489.109375 61.902344 478.957031 L 61.957031 478.957031 C 61.957031 468.964844 62.054688 458.976563 61.902344 448.988281 C 61.847656 445.527344 63.15625 444.234375 66.554688 444.25 C 77.539063 444.292969 88.53125 444.03125 99.515625 444.15625 C 109.136719 444.269531 113.847656 449.109375 113.898438 458.613281 C 113.964844 471.929688 113.96875 485.25 113.914063 498.570313 M 157.878906 506.070313 C 157.558594 501.933594 157.203125 497.753906 157.4375 493.628906 C 158.347656 477.820313 157.921875 462 157.722656 446.199219 C 157.589844 435.621094 152.359375 427.371094 142.527344 423.09375 C 137.445313 420.882813 131.707031 420.109375 126.03125 420.105469 C 106.382813 420.089844 86.730469 420.097656 67.082031 420.097656 L 67.082031 420.25 C 47.761719 420.25 28.445313 420.394531 9.128906 420.183594 C 0.046875 420.085938 0.605469 419.90625 0.6875 427.878906 C 0.699219 429.035156 0.457031 430.191406 0.34375 431.351563 C -0.621094 441.425781 -0.230469 444.578125 10.617188 442.429688 C 14.15625 441.730469 16.003906 442.980469 15.945313 447.253906 C 15.691406 466.070313 15.789063 484.886719 15.746094 503.707031 C 15.722656 514.425781 15.71875 514.527344 5.246094 515.09375 C 1.953125 515.269531 0.882813 516.75 0.9375 519.777344 C 1.023438 524.605469 1.125 529.441406 0.929688 534.261719 C 0.761719 538.429688 2.5 539.636719 6.582031 539.625 C 39.386719 539.515625 72.195313 539.683594 105 539.589844 C 113.792969 539.5625 122.652344 540.261719 131.359375 538.292969 C 147.636719 534.605469 159.453125 526.332031 157.878906 506.070313 "/>
<path style=" stroke:none;fill-rule:nonzero;fill:rgb(19.198608%,15.299988%,51.399231%);fill-opacity:1;" d="M 601.4375 475.273438 C 597.453125 475.375 593.464844 475.300781 589.480469 475.300781 L 589.480469 475.097656 C 585.324219 475.097656 581.164063 475.082031 577.011719 475.105469 C 574.816406 475.117188 573.714844 474.222656 574.796875 472.070313 C 578.453125 464.808594 583.371094 458.339844 587.855469 451.601563 C 588.789063 450.191406 589.941406 450.226563 590.953125 451.777344 C 595.277344 458.402344 599.703125 464.960938 603.949219 471.632813 C 605.707031 474.398438 603.761719 475.214844 601.4375 475.273438 M 695.964844 515.25 C 695.996094 512.917969 695.214844 512.003906 692.777344 512.101563 C 688.453125 512.28125 684.113281 512.023438 679.789063 512.222656 C 676.875 512.355469 675.332031 511.101563 673.949219 508.640625 C 657.996094 480.199219 641.941406 451.8125 625.90625 423.417969 C 624.921875 421.675781 623.96875 420.203125 621.417969 420.210938 C 595.101563 420.320313 568.785156 420.324219 542.464844 420.253906 C 539.621094 420.246094 538.917969 421.535156 538.414063 424.035156 C 537.484375 428.6875 539.007813 433.234375 538.371094 437.929688 C 537.53125 444.144531 538.738281 444.960938 545.21875 445.003906 C 547.050781 445.015625 548.882813 445.042969 550.714844 444.980469 C 554.472656 444.859375 554.558594 446.667969 553.019531 449.316406 C 540.957031 470.039063 528.867188 490.746094 516.847656 511.496094 C 515.71875 513.445313 514.269531 514.460938 512.066406 514.417969 C 507.589844 514.335938 503.109375 514.316406 498.640625 514.085938 C 495.898438 513.941406 494.660156 514.875 494.714844 517.746094 C 494.824219 523.90625 494.789063 530.070313 494.730469 536.234375 C 494.714844 538.527344 495.570313 539.535156 497.984375 539.472656 C 502.140625 539.367188 506.308594 539.519531 510.46875 539.535156 C 527.460938 539.597656 544.449219 539.65625 561.441406 539.707031 C 564.175781 539.714844 567.015625 539.878906 567.074219 535.886719 C 567.136719 531.398438 567.148438 526.90625 567.355469 522.421875 C 567.589844 517.460938 565.511719 515.460938 560.496094 516.214844 C 558.054688 516.582031 555.511719 516.265625 553.015625 516.316406 C 550.511719 516.367188 549.085938 516.03125 550.824219 513.023438 C 552.46875 510.179688 553.742188 507.101563 554.988281 504.046875 C 556.40625 500.570313 558.644531 498.964844 562.597656 499.023438 C 580.417969 499.28125 598.238281 499.359375 616.0625 499.335938 C 618.203125 499.332031 619.625 500.011719 620.652344 501.613281 C 622.441406 504.398438 624.0625 507.292969 625.765625 510.128906 C 627.074219 512.304688 626.296875 513.203125 623.949219 513.171875 C 620.285156 513.125 616.609375 513.234375 612.957031 512.980469 C 610.1875 512.785156 608.910156 513.730469 608.894531 516.539063 C 608.851563 522.863281 608.675781 529.191406 608.671875 535.519531 C 608.671875 538.203125 609.699219 539.617188 612.917969 539.570313 C 625.90625 539.371094 638.902344 539.488281 651.894531 539.488281 L 651.894531 539.644531 L 656.394531 539.644531 C 667.707031 539.648438 679.019531 539.734375 690.328125 539.578125 C 692.5625 539.542969 695.996094 540.746094 695.9375 536.238281 C 695.847656 529.242188 695.871094 522.246094 695.964844 515.25 "/>
<path style=" stroke:none;fill-rule:nonzero;fill:rgb(19.198608%,15.299988%,51.399231%);fill-opacity:1;" d="M 268.535156 475.128906 C 264.226563 474.996094 259.910156 475.097656 255.597656 475.101563 C 251.285156 475.101563 246.972656 475.0625 242.664063 475.117188 C 240.054688 475.148438 238.628906 474.53125 240.347656 471.691406 C 244.613281 464.640625 248.863281 457.578125 253.136719 450.527344 C 254.453125 448.355469 255.964844 446.945313 257.828125 449.980469 C 262.132813 456.984375 266.3125 464.066406 270.65625 471.046875 C 272.398438 473.847656 272.328125 475.242188 268.535156 475.128906 M 362.898438 524.796875 C 362.976563 513.578125 362.972656 513.3125 351.515625 514.125 C 346.21875 514.5 343.453125 512.589844 340.886719 508.082031 C 324.929688 480.011719 308.046875 452.472656 292.539063 424.140625 C 290.8125 420.984375 288.464844 419.726563 284.890625 419.824219 C 278.230469 420.003906 271.5625 419.847656 264.894531 419.847656 C 246.5625 419.84375 228.234375 419.914063 209.902344 419.792969 C 206.363281 419.769531 204.734375 420.507813 205.15625 424.527344 C 205.566406 428.476563 205.132813 432.511719 205.097656 436.507813 C 205.015625 444.957031 205.378906 445.304688 213.714844 444.972656 C 214.382813 444.945313 215.050781 444.933594 215.710938 444.839844 C 217.285156 444.613281 219.117188 443.460938 220.230469 445.386719 C 221.265625 447.175781 219.480469 448.417969 218.71875 449.773438 C 208.929688 467.210938 198.339844 484.257813 189.5625 502.191406 C 184.804688 511.910156 178.800781 515.671875 168.648438 513.933594 C 164.234375 513.179688 163.222656 515.433594 163.457031 519.324219 C 163.734375 523.972656 164.128906 528.691406 163.617188 533.28125 C 163.023438 538.644531 165.324219 539.636719 170.007813 539.601563 C 190.152344 539.441406 210.300781 539.503906 230.449219 539.625 C 232.992188 539.644531 233.746094 538.394531 233.769531 536.417969 C 233.851563 529.917969 233.769531 523.421875 233.777344 516.921875 C 233.78125 514.667969 233 513.632813 230.472656 513.828125 C 226.996094 514.097656 223.484375 513.96875 219.984375 513.945313 C 218.628906 513.9375 217.214844 513.742188 217.160156 511.921875 C 217.039063 508.015625 225.496094 499.261719 229.472656 499.246094 C 244.636719 499.199219 259.828125 499.71875 274.957031 498.996094 C 283.789063 498.574219 289.671875 500.4375 292.9375 509.417969 C 294.472656 513.632813 293.59375 514.082031 290.027344 513.863281 C 287.710938 513.722656 285.402344 513.480469 283.089844 513.308594 C 277.535156 512.894531 275.878906 514.398438 275.878906 519.925781 C 275.878906 524.914063 275.863281 529.902344 275.964844 534.894531 C 276.023438 537.816406 276.644531 539.660156 280.597656 539.554688 C 293.574219 539.210938 306.566406 539.425781 319.550781 539.425781 C 319.550781 539.445313 319.550781 539.460938 319.550781 539.480469 C 332.871094 539.480469 346.199219 539.34375 359.515625 539.585938 C 362.398438 539.640625 362.992188 538.691406 362.953125 536.292969 C 362.894531 532.460938 362.875 528.628906 362.898438 524.796875 "/>
</g>
</svg>
