<svg width="464" height="550" viewBox="0 0 464 550" fill="none" xmlns="http://www.w3.org/2000/svg">
<path d="M185.2 147.603V92.2678C138.253 92.2678 3.60116 158.459 0.0388638 320.871C-1.51591 391.756 44.0687 464.606 79.4535 493.889C134.74 542.067 194.729 550 232.147 550C278.017 550 319.737 537.001 357.094 513.56C419.356 474.491 463.756 405.203 463.755 320.871C463.755 163.628 341.233 102.951 279.971 92.2678V147.603C322.537 158.704 407.669 208.898 407.669 320.871C407.669 432.844 302.006 493.889 232.147 493.889C95.7366 493.889 57.7949 378.544 55.8753 320.871C55.8753 222.319 140.256 158.871 185.2 147.603Z" fill="#BDD747"/>
<path d="M219.502 0L188.742 30.7604L206.106 49.2012L219.878 35.43V317.616H245.167V0H219.502Z" fill="#58585A"/>
</svg>
